<svg xmlns="http://www.w3.org/2000/svg" xmlns:xlink="http://www.w3.org/1999/xlink" contentStyleType="text/css" data-diagram-type="ACTIVITY" height="563px" preserveAspectRatio="none" style="width:466px;height:563px;background:#1B1B1B;" version="1.1" viewBox="0 0 466 563" width="466px" zoomAndPan="magnify"><defs/><g><rect fill="#1B1B1B" height="563" style="stroke:none;stroke-width:1;" width="466" x="0" y="0"/><ellipse cx="234.8062" cy="20" fill="#DDDDDD" rx="10" ry="10" style="stroke:#DDDDDD;stroke-width:1;"/><rect fill="#313139" height="33.9688" rx="12.5" ry="12.5" style="stroke:#E7E7E7;stroke-width:0.5;" width="90.4648" x="189.5737" y="50"/><text fill="#FFFFFF" font-family="sans-serif" font-size="12" lengthAdjust="spacing" textLength="70.4648" x="199.5737" y="71.1387">User logs in</text><rect fill="#313139" height="33.9688" rx="12.5" ry="12.5" style="stroke:#E7E7E7;stroke-width:0.5;" width="145.877" x="161.8677" y="103.9688"/><text fill="#FFFFFF" font-family="sans-serif" font-size="12" lengthAdjust="spacing" textLength="125.877" x="171.8677" y="125.1074">Submit Role Request</text><rect fill="#313139" height="33.9688" rx="12.5" ry="12.5" style="stroke:#E7E7E7;stroke-width:0.5;" width="178.7715" x="145.4204" y="157.9375"/><text fill="#FFFFFF" font-family="sans-serif" font-size="12" lengthAdjust="spacing" textLength="158.7715" x="155.4204" y="179.0762">Mark Request as PENDING</text><rect fill="none" height="254.2031" style="stroke:#FFFFFF;stroke-width:1.5;" width="444.6504" x="11" y="201.9063"/><path d="M65.8643,201.9063 L65.8643,211.2031 L55.8643,221.2031 L11,221.2031" fill="none" style="stroke:#FFFFFF;stroke-width:1.5;"/><text fill="#FFFFFF" font-family="sans-serif" font-size="14" lengthAdjust="spacing" textLength="44.8643" x="14" y="215.9014">Admin</text><rect fill="#313139" height="33.9688" rx="12.5" ry="12.5" style="stroke:#E7E7E7;stroke-width:0.5;" width="174.916" x="147.3481" y="238.2031"/><text fill="#FFFFFF" font-family="sans-serif" font-size="12" lengthAdjust="spacing" textLength="154.916" x="157.3481" y="259.3418">Review Pending Requests</text><polygon fill="#313139" points="184.5408,292.1719,285.0715,292.1719,297.0715,304.1719,285.0715,316.1719,184.5408,316.1719,172.5408,304.1719,184.5408,292.1719" style="stroke:#E7E7E7;stroke-width:0.5;"/><text fill="#FFFFFF" font-family="sans-serif" font-size="11" lengthAdjust="spacing" textLength="100.5308" x="184.5408" y="307.98">Approve Request?</text><text fill="#FFFFFF" font-family="sans-serif" font-size="11" lengthAdjust="spacing" textLength="19.0083" x="153.5325" y="301.5776">yes</text><text fill="#FFFFFF" font-family="sans-serif" font-size="11" lengthAdjust="spacing" textLength="13.7017" x="297.0715" y="301.5776">no</text><rect fill="#313139" height="33.9688" rx="12.5" ry="12.5" style="stroke:#E7E7E7;stroke-width:0.5;" width="203.2871" x="23" y="326.1719"/><text fill="#FFFFFF" font-family="sans-serif" font-size="12" lengthAdjust="spacing" textLength="183.2871" x="33" y="347.3105">Update Request as APPROVED</text><rect fill="#313139" height="33.9688" rx="12.5" ry="12.5" style="stroke:#E7E7E7;stroke-width:0.5;" width="136.5078" x="56.3896" y="380.1406"/><text fill="#FFFFFF" font-family="sans-serif" font-size="12" lengthAdjust="spacing" textLength="116.5078" x="66.3896" y="401.2793">Assign Role to User</text><rect fill="#313139" height="33.9688" rx="12.5" ry="12.5" style="stroke:#E7E7E7;stroke-width:0.5;" width="197.3633" x="246.2871" y="326.1719"/><text fill="#FFFFFF" font-family="sans-serif" font-size="12" lengthAdjust="spacing" textLength="177.3633" x="256.2871" y="347.3105">Update Request as REJECTED</text><polygon fill="#313139" points="234.8062,420.1094,246.8062,432.1094,234.8062,444.1094,222.8062,432.1094,234.8062,420.1094" style="stroke:#E7E7E7;stroke-width:0.5;"/><rect fill="#313139" height="33.9688" rx="12.5" ry="12.5" style="stroke:#E7E7E7;stroke-width:0.5;" width="163.2852" x="153.1636" y="476.1094"/><text fill="#FFFFFF" font-family="sans-serif" font-size="12" lengthAdjust="spacing" textLength="143.2852" x="163.1636" y="497.248">Update User of decision</text><ellipse cx="234.8062" cy="541.0781" fill="none" rx="11" ry="11" style="stroke:#DDDDDD;stroke-width:1;"/><ellipse cx="234.8062" cy="541.0781" fill="#DDDDDD" rx="6" ry="6" style="stroke:#DDDDDD;stroke-width:1;"/><line style="stroke:#E7E7E7;stroke-width:1;" x1="234.8062" x2="234.8062" y1="30" y2="50"/><polygon fill="#E7E7E7" points="230.8062,40,234.8062,50,238.8062,40,234.8062,44" style="stroke:#E7E7E7;stroke-width:1;"/><line style="stroke:#E7E7E7;stroke-width:1;" x1="234.8062" x2="234.8062" y1="83.9688" y2="103.9688"/><polygon fill="#E7E7E7" points="230.8062,93.9688,234.8062,103.9688,238.8062,93.9688,234.8062,97.9688" style="stroke:#E7E7E7;stroke-width:1;"/><line style="stroke:#E7E7E7;stroke-width:1;" x1="234.8062" x2="234.8062" y1="137.9375" y2="157.9375"/><polygon fill="#E7E7E7" points="230.8062,147.9375,234.8062,157.9375,238.8062,147.9375,234.8062,151.9375" style="stroke:#E7E7E7;stroke-width:1;"/><line style="stroke:#E7E7E7;stroke-width:1;" x1="124.6436" x2="124.6436" y1="360.1406" y2="380.1406"/><polygon fill="#E7E7E7" points="120.6436,370.1406,124.6436,380.1406,128.6436,370.1406,124.6436,374.1406" style="stroke:#E7E7E7;stroke-width:1;"/><line style="stroke:#E7E7E7;stroke-width:1;" x1="172.5408" x2="124.6436" y1="304.1719" y2="304.1719"/><line style="stroke:#E7E7E7;stroke-width:1;" x1="124.6436" x2="124.6436" y1="304.1719" y2="326.1719"/><polygon fill="#E7E7E7" points="120.6436,316.1719,124.6436,326.1719,128.6436,316.1719,124.6436,320.1719" style="stroke:#E7E7E7;stroke-width:1;"/><line style="stroke:#E7E7E7;stroke-width:1;" x1="297.0715" x2="344.9688" y1="304.1719" y2="304.1719"/><line style="stroke:#E7E7E7;stroke-width:1;" x1="344.9688" x2="344.9688" y1="304.1719" y2="326.1719"/><polygon fill="#E7E7E7" points="340.9688,316.1719,344.9688,326.1719,348.9688,316.1719,344.9688,320.1719" style="stroke:#E7E7E7;stroke-width:1;"/><line style="stroke:#E7E7E7;stroke-width:1;" x1="124.6436" x2="124.6436" y1="414.1094" y2="432.1094"/><line style="stroke:#E7E7E7;stroke-width:1;" x1="124.6436" x2="222.8062" y1="432.1094" y2="432.1094"/><polygon fill="#E7E7E7" points="212.8062,428.1094,222.8062,432.1094,212.8062,436.1094,216.8062,432.1094" style="stroke:#E7E7E7;stroke-width:1;"/><line style="stroke:#E7E7E7;stroke-width:1;" x1="344.9688" x2="344.9688" y1="360.1406" y2="432.1094"/><line style="stroke:#E7E7E7;stroke-width:1;" x1="344.9688" x2="246.8062" y1="432.1094" y2="432.1094"/><polygon fill="#E7E7E7" points="256.8062,428.1094,246.8062,432.1094,256.8062,436.1094,252.8062,432.1094" style="stroke:#E7E7E7;stroke-width:1;"/><line style="stroke:#E7E7E7;stroke-width:1;" x1="234.8062" x2="234.8062" y1="272.1719" y2="292.1719"/><polygon fill="#E7E7E7" points="230.8062,282.1719,234.8062,292.1719,238.8062,282.1719,234.8062,286.1719" style="stroke:#E7E7E7;stroke-width:1;"/><line style="stroke:#E7E7E7;stroke-width:1;" x1="234.8062" x2="234.8062" y1="191.9063" y2="238.2031"/><polygon fill="#E7E7E7" points="230.8062,228.2031,234.8062,238.2031,238.8062,228.2031,234.8062,232.2031" style="stroke:#E7E7E7;stroke-width:1;"/><line style="stroke:#E7E7E7;stroke-width:1;" x1="234.8062" x2="234.8062" y1="444.1094" y2="476.1094"/><polygon fill="#E7E7E7" points="230.8062,466.1094,234.8062,476.1094,238.8062,466.1094,234.8062,470.1094" style="stroke:#E7E7E7;stroke-width:1;"/><line style="stroke:#E7E7E7;stroke-width:1;" x1="234.8062" x2="234.8062" y1="510.0781" y2="530.0781"/><polygon fill="#E7E7E7" points="230.8062,520.0781,234.8062,530.0781,238.8062,520.0781,234.8062,524.0781" style="stroke:#E7E7E7;stroke-width:1;"/><!--SRC=[TP31Ri9034Jl-nLp3B-G75044G89Y1ReFJHEi0YxIsoeggh_taqZ41UEjiVFCnQjUZKcFGZrw7mhO9UPT7SxNbXXVKUmTBsHQEokg_xyA549oc8pNsuMcJ4XKbZPE-JrXHr-391QkZDzeIHNisiVYvB56JT8yX1wVt_ofnFeYHoIRv99b4J08TILqkl5l2pjzgEOPwCW5-7MZJRLOmWnJAWJGkByMumjLiLiFs86Tutv7NumwlvVuHlKzCaI8yLueZxy0G00]--></g></svg>