<svg xmlns="http://www.w3.org/2000/svg" xmlns:xlink="http://www.w3.org/1999/xlink" contentStyleType="text/css" data-diagram-type="SEQUENCE" height="473px" preserveAspectRatio="none" style="width:425px;height:473px;background:#1B1B1B;" version="1.1" viewBox="0 0 425 473" width="425px" zoomAndPan="magnify"><defs/><g><rect fill="#1B1B1B" height="473" style="stroke:none;stroke-width:1;" width="425" x="0" y="0"/><g><title>Admin</title><rect fill="#000000" fill-opacity="0.00000" height="311.3281" width="8" x="26.4321" y="81.2969"/><line style="stroke:#E7E7E7;stroke-width:0.5;stroke-dasharray:5.0,5.0;" x1="30" x2="30" y1="81.2969" y2="392.625"/></g><g><title>Auth Service</title><rect fill="#000000" fill-opacity="0.00000" height="311.3281" width="8" x="227.6777" y="81.2969"/><line style="stroke:#E7E7E7;stroke-width:0.5;stroke-dasharray:5.0,5.0;" x1="231.1758" x2="231.1758" y1="81.2969" y2="392.625"/></g><g><title>Address Service</title><rect fill="#000000" fill-opacity="0.00000" height="311.3281" width="8" x="352.4292" y="81.2969"/><line style="stroke:#E7E7E7;stroke-width:0.5;stroke-dasharray:5.0,5.0;" x1="356.1797" x2="356.1797" y1="81.2969" y2="392.625"/></g><g class="participant participant-head" data-participant="A"><text fill="#FFFFFF" font-family="sans-serif" font-size="14" lengthAdjust="spacing" textLength="44.8643" x="5" y="77.9951">Admin</text><ellipse cx="30.4321" cy="13.5" fill="#222222" rx="8" ry="8" style="stroke:#E7E7E7;stroke-width:0.5;"/><path d="M30.4321,21.5 L30.4321,48.5 M17.4321,29.5 L43.4321,29.5 M30.4321,48.5 L17.4321,63.5 M30.4321,48.5 L43.4321,63.5" fill="none" style="stroke:#E7E7E7;stroke-width:0.5;"/></g><g class="participant participant-tail" data-participant="A"><text fill="#FFFFFF" font-family="sans-serif" font-size="14" lengthAdjust="spacing" textLength="44.8643" x="5" y="404.6201">Admin</text><ellipse cx="30.4321" cy="416.4219" fill="#222222" rx="8" ry="8" style="stroke:#E7E7E7;stroke-width:0.5;"/><path d="M30.4321,424.4219 L30.4321,451.4219 M17.4321,432.4219 L43.4321,432.4219 M30.4321,451.4219 L17.4321,466.4219 M30.4321,451.4219 L43.4321,466.4219" fill="none" style="stroke:#E7E7E7;stroke-width:0.5;"/></g><g class="participant participant-head" data-participant="Auth"><rect fill="#222222" height="30.2969" rx="2.5" ry="2.5" style="stroke:#E7E7E7;stroke-width:0.5;" width="103.0039" x="180.1758" y="50"/><text fill="#FFFFFF" font-family="sans-serif" font-size="14" lengthAdjust="spacing" textLength="89.0039" x="187.1758" y="69.9951">Auth Service</text></g><g class="participant participant-tail" data-participant="Auth"><rect fill="#222222" height="30.2969" rx="2.5" ry="2.5" style="stroke:#E7E7E7;stroke-width:0.5;" width="103.0039" x="180.1758" y="391.625"/><text fill="#FFFFFF" font-family="sans-serif" font-size="14" lengthAdjust="spacing" textLength="89.0039" x="187.1758" y="411.6201">Auth Service</text></g><g class="participant participant-head" data-participant="AddrSvc"><rect fill="#222222" height="30.2969" rx="2.5" ry="2.5" style="stroke:#E7E7E7;stroke-width:0.5;" width="126.499" x="293.1797" y="50"/><text fill="#FFFFFF" font-family="sans-serif" font-size="14" lengthAdjust="spacing" textLength="112.499" x="300.1797" y="69.9951">Address Service</text></g><g class="participant participant-tail" data-participant="AddrSvc"><rect fill="#222222" height="30.2969" rx="2.5" ry="2.5" style="stroke:#E7E7E7;stroke-width:0.5;" width="126.499" x="293.1797" y="391.625"/><text fill="#FFFFFF" font-family="sans-serif" font-size="14" lengthAdjust="spacing" textLength="112.499" x="300.1797" y="411.6201">Address Service</text></g><g class="message" data-participant-1="A" data-participant-2="Auth"><polygon fill="#E7E7E7" points="219.6777,108.4297,229.6777,112.4297,219.6777,116.4297,223.6777,112.4297" style="stroke:#E7E7E7;stroke-width:1;"/><line style="stroke:#E7E7E7;stroke-width:1;" x1="30.4321" x2="225.6777" y1="112.4297" y2="112.4297"/><text fill="#FFFFFF" font-family="sans-serif" font-size="13" lengthAdjust="spacing" textLength="177.2456" x="37.4321" y="107.3638">login(username, password)</text></g><g class="message" data-participant-1="Auth" data-participant-2="A"><polygon fill="#E7E7E7" points="41.4321,137.5625,31.4321,141.5625,41.4321,145.5625,37.4321,141.5625" style="stroke:#E7E7E7;stroke-width:1;"/><line style="stroke:#E7E7E7;stroke-width:1;stroke-dasharray:2.0,2.0;" x1="35.4321" x2="230.6777" y1="141.5625" y2="141.5625"/><text fill="#FFFFFF" font-family="sans-serif" font-size="13" lengthAdjust="spacing" textLength="121.3291" x="47.4321" y="136.4966">auth token + roles</text></g><g class="message" data-participant-1="A" data-participant-2="AddrSvc"><polygon fill="#E7E7E7" points="344.4292,166.6953,354.4292,170.6953,344.4292,174.6953,348.4292,170.6953" style="stroke:#E7E7E7;stroke-width:1;"/><line style="stroke:#E7E7E7;stroke-width:1;" x1="30.4321" x2="350.4292" y1="170.6953" y2="170.6953"/><text fill="#FFFFFF" font-family="sans-serif" font-size="13" lengthAdjust="spacing" textLength="114.6641" x="37.4321" y="165.6294">getAllAddresses()</text></g><g class="message" data-participant-1="AddrSvc" data-participant-2="A"><polygon fill="#E7E7E7" points="41.4321,195.8281,31.4321,199.8281,41.4321,203.8281,37.4321,199.8281" style="stroke:#E7E7E7;stroke-width:1;"/><line style="stroke:#E7E7E7;stroke-width:1;stroke-dasharray:2.0,2.0;" x1="35.4321" x2="355.4292" y1="199.8281" y2="199.8281"/><text fill="#FFFFFF" font-family="sans-serif" font-size="13" lengthAdjust="spacing" textLength="106.0186" x="47.4321" y="194.7622">list of addresses</text></g><g class="message" data-participant-1="A" data-participant-2="AddrSvc"><polygon fill="#E7E7E7" points="344.4292,224.9609,354.4292,228.9609,344.4292,232.9609,348.4292,228.9609" style="stroke:#E7E7E7;stroke-width:1;"/><line style="stroke:#E7E7E7;stroke-width:1;" x1="30.4321" x2="350.4292" y1="228.9609" y2="228.9609"/><text fill="#FFFFFF" font-family="sans-serif" font-size="13" lengthAdjust="spacing" textLength="266.7983" x="37.4321" y="223.895">addAddress(state, district, block, village)</text></g><g class="message" data-participant-1="AddrSvc" data-participant-2="A"><polygon fill="#E7E7E7" points="41.4321,254.0938,31.4321,258.0938,41.4321,262.0938,37.4321,258.0938" style="stroke:#E7E7E7;stroke-width:1;"/><line style="stroke:#E7E7E7;stroke-width:1;stroke-dasharray:2.0,2.0;" x1="35.4321" x2="355.4292" y1="258.0938" y2="258.0938"/><text fill="#FFFFFF" font-family="sans-serif" font-size="13" lengthAdjust="spacing" textLength="143.3999" x="47.4321" y="253.0278">confirmation(success)</text></g><g class="message" data-participant-1="A" data-participant-2="AddrSvc"><polygon fill="#E7E7E7" points="344.4292,283.2266,354.4292,287.2266,344.4292,291.2266,348.4292,287.2266" style="stroke:#E7E7E7;stroke-width:1;"/><line style="stroke:#E7E7E7;stroke-width:1;" x1="30.4321" x2="350.4292" y1="287.2266" y2="287.2266"/><text fill="#FFFFFF" font-family="sans-serif" font-size="13" lengthAdjust="spacing" textLength="251.8813" x="37.4321" y="282.1606">updateAddress(addressId, newDetails)</text></g><g class="message" data-participant-1="AddrSvc" data-participant-2="A"><polygon fill="#E7E7E7" points="41.4321,312.3594,31.4321,316.3594,41.4321,320.3594,37.4321,316.3594" style="stroke:#E7E7E7;stroke-width:1;"/><line style="stroke:#E7E7E7;stroke-width:1;stroke-dasharray:2.0,2.0;" x1="35.4321" x2="355.4292" y1="316.3594" y2="316.3594"/><text fill="#FFFFFF" font-family="sans-serif" font-size="13" lengthAdjust="spacing" textLength="143.3999" x="47.4321" y="311.2935">confirmation(success)</text></g><g class="message" data-participant-1="A" data-participant-2="AddrSvc"><polygon fill="#E7E7E7" points="344.4292,341.4922,354.4292,345.4922,344.4292,349.4922,348.4292,345.4922" style="stroke:#E7E7E7;stroke-width:1;"/><line style="stroke:#E7E7E7;stroke-width:1;" x1="30.4321" x2="350.4292" y1="345.4922" y2="345.4922"/><text fill="#FFFFFF" font-family="sans-serif" font-size="13" lengthAdjust="spacing" textLength="166.8291" x="37.4321" y="340.4263">deleteAddress(addressId)</text></g><g class="message" data-participant-1="AddrSvc" data-participant-2="A"><polygon fill="#E7E7E7" points="41.4321,370.625,31.4321,374.625,41.4321,378.625,37.4321,374.625" style="stroke:#E7E7E7;stroke-width:1;"/><line style="stroke:#E7E7E7;stroke-width:1;stroke-dasharray:2.0,2.0;" x1="35.4321" x2="355.4292" y1="374.625" y2="374.625"/><text fill="#FFFFFF" font-family="sans-serif" font-size="13" lengthAdjust="spacing" textLength="143.3999" x="47.4321" y="369.5591">confirmation(success)</text></g><!--SRC=[dOunRiCm34LtduB8vA3E1Je44D2bSqx0IenBX9OCaNQkNyQrXzGTYeua7z__6ArK26dW3AWGccR4QXnvn6nm29DzmeNgp94E2-2B7qXAbLIVATzTvjWq0KxdvGTUGKhFkPsKQiQ1EXXHzLvgEZOBS7gGZk5Zi7AZ32zGYv1kcc-f8prP45c3ILithBTD8gm6vGguCJk7NrP1guRcVPB_L8xMmOUKUEjWPX7iQM-F9L-v3cXSSgjJZ6uvxXAcCRbt2rcRlASECjtVo915_wjE9FIB-e-wBm00]--></g></svg>