<svg xmlns="http://www.w3.org/2000/svg" xmlns:xlink="http://www.w3.org/1999/xlink" contentStyleType="text/css" data-diagram-type="CLASS" height="333px" preserveAspectRatio="none" style="width:634px;height:333px;background:#1B1B1B;" version="1.1" viewBox="0 0 634 333" width="634px" zoomAndPan="magnify"><defs/><g><rect fill="#1B1B1B" height="333" style="stroke:none;stroke-width:1;" width="634" x="0" y="0"/><!--class Family--><g class="entity" data-entity="Family" data-source-line="3" data-uid="ent0002" id="entity_Family"><rect fill="#313139" height="80.5938" rx="2.5" ry="2.5" style="stroke:#E7E7E7;stroke-width:0.5;" width="208.499" x="7" y="23.29"/><ellipse cx="83.8325" cy="39.29" fill="#2E5233" rx="11" ry="11" style="stroke:#E7E7E7;stroke-width:1;"/><path d="M86.8013,44.9306 Q86.2231,45.2275 85.5825,45.3681 Q84.9419,45.5244 84.2388,45.5244 Q81.7388,45.5244 80.4106,43.8838 Q79.0981,42.2275 79.0981,39.1025 Q79.0981,35.9775 80.4106,34.3213 Q81.7388,32.665 84.2388,32.665 Q84.9419,32.665 85.5825,32.8213 Q86.2388,32.9775 86.8013,33.2744 L86.8013,35.9931 Q86.1763,35.415 85.5825,35.1494 Q84.9888,34.8681 84.3638,34.8681 Q83.02,34.8681 82.3325,35.9463 Q81.645,37.0088 81.645,39.1025 Q81.645,41.1963 82.3325,42.2744 Q83.02,43.3369 84.3638,43.3369 Q84.9888,43.3369 85.5825,43.0713 Q86.1763,42.79 86.8013,42.2119 L86.8013,44.9306 Z " fill="#FFFFFF"/><text fill="#FFFFFF" font-family="sans-serif" font-size="14" lengthAdjust="spacing" textLength="46.334" x="104.3325" y="44.1367">Family</text><line style="stroke:#E7E7E7;stroke-width:0.5;" x1="8" x2="214.499" y1="55.29" y2="55.29"/><text fill="#FFFFFF" font-family="sans-serif" font-size="14" lengthAdjust="spacing" textLength="63.082" x="13" y="72.2851">+Long id</text><text fill="#FFFFFF" font-family="sans-serif" font-size="14" lengthAdjust="spacing" textLength="196.499" x="13" y="88.582">+String headOfFamilyName</text><line style="stroke:#E7E7E7;stroke-width:0.5;" x1="8" x2="214.499" y1="95.8838" y2="95.8838"/></g><!--class TemporaryResidence--><g class="entity" data-entity="TemporaryResidence" data-source-line="8" data-uid="ent0003" id="entity_TemporaryResidence"><rect fill="#313139" height="113.1875" rx="2.5" ry="2.5" style="stroke:#E7E7E7;stroke-width:0.5;" width="180.8389" x="250.83" y="7"/><ellipse cx="265.83" cy="23" fill="#2E5233" rx="11" ry="11" style="stroke:#E7E7E7;stroke-width:1;"/><path d="M268.7988,28.6406 Q268.2206,28.9375 267.58,29.0781 Q266.9394,29.2344 266.2363,29.2344 Q263.7363,29.2344 262.4081,27.5938 Q261.0956,25.9375 261.0956,22.8125 Q261.0956,19.6875 262.4081,18.0313 Q263.7363,16.375 266.2363,16.375 Q266.9394,16.375 267.58,16.5313 Q268.2363,16.6875 268.7988,16.9844 L268.7988,19.7031 Q268.1738,19.125 267.58,18.8594 Q266.9863,18.5781 266.3613,18.5781 Q265.0175,18.5781 264.33,19.6563 Q263.6425,20.7188 263.6425,22.8125 Q263.6425,24.9063 264.33,25.9844 Q265.0175,27.0469 266.3613,27.0469 Q266.9863,27.0469 267.58,26.7813 Q268.1738,26.5 268.7988,25.9219 L268.7988,28.6406 Z " fill="#FFFFFF"/><text fill="#FFFFFF" font-family="sans-serif" font-size="14" lengthAdjust="spacing" textLength="148.8389" x="279.83" y="27.8467">TemporaryResidence</text><line style="stroke:#E7E7E7;stroke-width:0.5;" x1="251.83" x2="430.6689" y1="39" y2="39"/><text fill="#FFFFFF" font-family="sans-serif" font-size="14" lengthAdjust="spacing" textLength="63.082" x="256.83" y="55.9951">+Long id</text><text fill="#FFFFFF" font-family="sans-serif" font-size="14" lengthAdjust="spacing" textLength="115.7119" x="256.83" y="72.292">+Date startDate</text><text fill="#FFFFFF" font-family="sans-serif" font-size="14" lengthAdjust="spacing" textLength="109.4775" x="256.83" y="88.5889">+Date endDate</text><text fill="#FFFFFF" font-family="sans-serif" font-size="14" lengthAdjust="spacing" textLength="105.6426" x="256.83" y="104.8857">+String reason</text><line style="stroke:#E7E7E7;stroke-width:0.5;" x1="251.83" x2="430.6689" y1="112.1875" y2="112.1875"/></g><!--class VaccinationCenter--><g class="entity" data-entity="VaccinationCenter" data-source-line="15" data-uid="ent0004" id="entity_VaccinationCenter"><rect fill="#313139" height="80.5938" rx="2.5" ry="2.5" style="stroke:#E7E7E7;stroke-width:0.5;" width="160.8301" x="466.83" y="23.29"/><ellipse cx="481.83" cy="39.29" fill="#2E5233" rx="11" ry="11" style="stroke:#E7E7E7;stroke-width:1;"/><path d="M484.7988,44.9306 Q484.2206,45.2275 483.58,45.3681 Q482.9394,45.5244 482.2363,45.5244 Q479.7363,45.5244 478.4081,43.8838 Q477.0956,42.2275 477.0956,39.1025 Q477.0956,35.9775 478.4081,34.3213 Q479.7363,32.665 482.2363,32.665 Q482.9394,32.665 483.58,32.8213 Q484.2363,32.9775 484.7988,33.2744 L484.7988,35.9931 Q484.1738,35.415 483.58,35.1494 Q482.9863,34.8681 482.3613,34.8681 Q481.0175,34.8681 480.33,35.9463 Q479.6425,37.0088 479.6425,39.1025 Q479.6425,41.1963 480.33,42.2744 Q481.0175,43.3369 482.3613,43.3369 Q482.9863,43.3369 483.58,43.0713 Q484.1738,42.79 484.7988,42.2119 L484.7988,44.9306 Z " fill="#FFFFFF"/><text fill="#FFFFFF" font-family="sans-serif" font-size="14" lengthAdjust="spacing" textLength="128.8301" x="495.83" y="44.1367">VaccinationCenter</text><line style="stroke:#E7E7E7;stroke-width:0.5;" x1="467.83" x2="626.6601" y1="55.29" y2="55.29"/><text fill="#FFFFFF" font-family="sans-serif" font-size="14" lengthAdjust="spacing" textLength="63.082" x="472.83" y="72.2851">+Long id</text><text fill="#FFFFFF" font-family="sans-serif" font-size="14" lengthAdjust="spacing" textLength="97.665" x="472.83" y="88.582">+String name</text><line style="stroke:#E7E7E7;stroke-width:0.5;" x1="467.83" x2="626.6601" y1="95.8838" y2="95.8838"/></g><!--class Address--><g class="entity" data-entity="Address" data-source-line="20" data-uid="ent0005" id="entity_Address"><rect fill="#313139" height="129.4844" rx="2.5" ry="2.5" style="stroke:#E7E7E7;stroke-width:0.5;" width="118.3535" x="282.07" y="197.19"/><ellipse cx="310.5907" cy="213.19" fill="#2E5233" rx="11" ry="11" style="stroke:#E7E7E7;stroke-width:1;"/><path d="M313.5594,218.8306 Q312.9813,219.1275 312.3407,219.2681 Q311.7,219.4244 310.9969,219.4244 Q308.4969,219.4244 307.1688,217.7838 Q305.8563,216.1275 305.8563,213.0025 Q305.8563,209.8775 307.1688,208.2213 Q308.4969,206.565 310.9969,206.565 Q311.7,206.565 312.3407,206.7213 Q312.9969,206.8775 313.5594,207.1744 L313.5594,209.8931 Q312.9344,209.315 312.3407,209.0494 Q311.7469,208.7681 311.1219,208.7681 Q309.7782,208.7681 309.0907,209.8463 Q308.4032,210.9088 308.4032,213.0025 Q308.4032,215.0963 309.0907,216.1744 Q309.7782,217.2369 311.1219,217.2369 Q311.7469,217.2369 312.3407,216.9713 Q312.9344,216.69 313.5594,216.1119 L313.5594,218.8306 Z " fill="#FFFFFF"/><text fill="#FFFFFF" font-family="sans-serif" font-size="14" lengthAdjust="spacing" textLength="56.3076" x="327.5952" y="218.0367">Address</text><line style="stroke:#E7E7E7;stroke-width:0.5;" x1="283.07" x2="399.4235" y1="229.19" y2="229.19"/><text fill="#FFFFFF" font-family="sans-serif" font-size="14" lengthAdjust="spacing" textLength="63.082" x="288.07" y="246.1851">+Long id</text><text fill="#FFFFFF" font-family="sans-serif" font-size="14" lengthAdjust="spacing" textLength="93.4268" x="288.07" y="262.482">+String state</text><text fill="#FFFFFF" font-family="sans-serif" font-size="14" lengthAdjust="spacing" textLength="106.3535" x="288.07" y="278.7789">+String district</text><text fill="#FFFFFF" font-family="sans-serif" font-size="14" lengthAdjust="spacing" textLength="95.1084" x="288.07" y="295.0757">+String block</text><text fill="#FFFFFF" font-family="sans-serif" font-size="14" lengthAdjust="spacing" textLength="103.9951" x="288.07" y="311.3726">+String village</text><line style="stroke:#E7E7E7;stroke-width:0.5;" x1="283.07" x2="399.4235" y1="318.6744" y2="318.6744"/></g><!--link VaccinationCenter to Address--><g class="link" data-entity-1="VaccinationCenter" data-entity-2="Address" data-source-line="30" data-uid="lnk6" id="link_VaccinationCenter_Address"><path codeLine="30" d="M505.56,104.32 C475.47,133.01 434.39,172.16 400.83,204.14" fill="none" id="VaccinationCenter-Address" style="stroke:#E7E7E7;stroke-width:1;"/><text fill="#FFFFFF" font-family="sans-serif" font-size="13" lengthAdjust="spacing" textLength="62.0166" x="457.25" y="163.2569">locatedAt</text><text fill="#FFFFFF" font-family="sans-serif" font-size="13" lengthAdjust="spacing" textLength="8.271" x="490.3005" y="124.0846">1</text><text fill="#FFFFFF" font-family="sans-serif" font-size="13" lengthAdjust="spacing" textLength="8.271" x="408.5957" y="193.2575">1</text></g><!--link TemporaryResidence to Address--><g class="link" data-entity-1="TemporaryResidence" data-entity-2="Address" data-source-line="32" data-uid="lnk7" id="link_TemporaryResidence_Address"><path codeLine="32" d="M341.25,120.59 C341.25,144.39 341.25,172.28 341.25,196.89" fill="none" id="TemporaryResidence-Address" style="stroke:#E7E7E7;stroke-width:1;"/><text fill="#FFFFFF" font-family="sans-serif" font-size="13" lengthAdjust="spacing" textLength="13.0635" x="342.25" y="163.2569">at</text><text fill="#FFFFFF" font-family="sans-serif" font-size="13" lengthAdjust="spacing" textLength="8.271" x="332.8032" y="140.122">1</text><text fill="#FFFFFF" font-family="sans-serif" font-size="13" lengthAdjust="spacing" textLength="8.271" x="332.8277" y="186.0299">1</text></g><!--link Family to Address--><g class="link" data-entity-1="Family" data-entity-2="Address" data-source-line="34" data-uid="lnk8" id="link_Family_Address"><path codeLine="34" d="M144.58,103.96 C162.29,123.87 184.95,147.85 207.25,167.19 C230.41,187.28 257.88,207.1 281.9,223.31" fill="none" id="Family-Address" style="stroke:#E7E7E7;stroke-width:1;"/><text fill="#FFFFFF" font-family="sans-serif" font-size="13" lengthAdjust="spacing" textLength="124.084" x="208.25" y="163.2569">permanentAddress</text><text fill="#FFFFFF" font-family="sans-serif" font-size="13" lengthAdjust="spacing" textLength="8.271" x="141.4603" y="123.9669">1</text><text fill="#FFFFFF" font-family="sans-serif" font-size="13" lengthAdjust="spacing" textLength="8.271" x="265.8011" y="214.476">1</text></g><!--SRC=[TL31IWD13BtdAqAlfQ1NRuiY26B1YlTq9jRGdSmo4uLQ_7VZThUsT3tb9U_blP2w5UseKCBGKgsDMP7rX_53oBgIByOhW9x1UqhIxlOmVyowGOamNxdMuJjJNBuTw2TA3D_ZoWkdBXSgksUk4ba3unuGZmuExyWOgr6nNtISiCQn7r8AKytwv_rA8OYIITPRLkDoOJqiwjb9JOo5lVuZzalEKgDK1y5EHkisX-r9_objIvi-0k3ogjdr31UBlepPD-WMdXCR0vZuqUGAkVRmusc-uv98FNCO_G00]--></g></svg>