<svg xmlns="http://www.w3.org/2000/svg" xmlns:xlink="http://www.w3.org/1999/xlink" contentStyleType="text/css" data-diagram-type="SEQUENCE" height="441px" preserveAspectRatio="none" style="width:726px;height:441px;background:#1B1B1B;" version="1.1" viewBox="0 0 726 441" width="726px" zoomAndPan="magnify"><defs/><g><rect fill="#1B1B1B" height="441" style="stroke:none;stroke-width:1;" width="726" x="0" y="0"/><g><title>Admin</title><rect fill="#000000" fill-opacity="0.00000" height="279.0625" width="8" x="26.4321" y="81.2969"/><line style="stroke:#E7E7E7;stroke-width:0.5;stroke-dasharray:5.0,5.0;" x1="30" x2="30" y1="81.2969" y2="360.3594"/></g><g><title>Auth Service</title><rect fill="#000000" fill-opacity="0.00000" height="279.0625" width="8" x="227.6777" y="81.2969"/><line style="stroke:#E7E7E7;stroke-width:0.5;stroke-dasharray:5.0,5.0;" x1="231.1758" x2="231.1758" y1="81.2969" y2="360.3594"/></g><g><title>User Management Service</title><rect fill="#000000" fill-opacity="0.00000" height="279.0625" width="8" x="388.5674" y="81.2969"/><line style="stroke:#E7E7E7;stroke-width:0.5;stroke-dasharray:5.0,5.0;" x1="392.1797" x2="392.1797" y1="81.2969" y2="360.3594"/></g><g class="participant participant-head" data-participant="A"><text fill="#FFFFFF" font-family="sans-serif" font-size="14" lengthAdjust="spacing" textLength="44.8643" x="5" y="77.9951">Admin</text><ellipse cx="30.4321" cy="13.5" fill="#222222" rx="8" ry="8" style="stroke:#E7E7E7;stroke-width:0.5;"/><path d="M30.4321,21.5 L30.4321,48.5 M17.4321,29.5 L43.4321,29.5 M30.4321,48.5 L17.4321,63.5 M30.4321,48.5 L43.4321,63.5" fill="none" style="stroke:#E7E7E7;stroke-width:0.5;"/></g><g class="participant participant-tail" data-participant="A"><text fill="#FFFFFF" font-family="sans-serif" font-size="14" lengthAdjust="spacing" textLength="44.8643" x="5" y="372.3545">Admin</text><ellipse cx="30.4321" cy="384.1563" fill="#222222" rx="8" ry="8" style="stroke:#E7E7E7;stroke-width:0.5;"/><path d="M30.4321,392.1563 L30.4321,419.1563 M17.4321,400.1563 L43.4321,400.1563 M30.4321,419.1563 L17.4321,434.1563 M30.4321,419.1563 L43.4321,434.1563" fill="none" style="stroke:#E7E7E7;stroke-width:0.5;"/></g><g class="participant participant-head" data-participant="Auth"><rect fill="#222222" height="30.2969" rx="2.5" ry="2.5" style="stroke:#E7E7E7;stroke-width:0.5;" width="103.0039" x="180.1758" y="50"/><text fill="#FFFFFF" font-family="sans-serif" font-size="14" lengthAdjust="spacing" textLength="89.0039" x="187.1758" y="69.9951">Auth Service</text></g><g class="participant participant-tail" data-participant="Auth"><rect fill="#222222" height="30.2969" rx="2.5" ry="2.5" style="stroke:#E7E7E7;stroke-width:0.5;" width="103.0039" x="180.1758" y="359.3594"/><text fill="#FFFFFF" font-family="sans-serif" font-size="14" lengthAdjust="spacing" textLength="89.0039" x="187.1758" y="379.3545">Auth Service</text></g><g class="participant participant-head" data-participant="UserSvc"><rect fill="#222222" height="30.2969" rx="2.5" ry="2.5" style="stroke:#E7E7E7;stroke-width:0.5;" width="198.7754" x="293.1797" y="50"/><text fill="#FFFFFF" font-family="sans-serif" font-size="14" lengthAdjust="spacing" textLength="184.7754" x="300.1797" y="69.9951">User Management Service</text></g><g class="participant participant-tail" data-participant="UserSvc"><rect fill="#222222" height="30.2969" rx="2.5" ry="2.5" style="stroke:#E7E7E7;stroke-width:0.5;" width="198.7754" x="293.1797" y="359.3594"/><text fill="#FFFFFF" font-family="sans-serif" font-size="14" lengthAdjust="spacing" textLength="184.7754" x="300.1797" y="379.3545">User Management Service</text></g><g class="message" data-participant-1="A" data-participant-2="Auth"><polygon fill="#E7E7E7" points="219.6777,108.4297,229.6777,112.4297,219.6777,116.4297,223.6777,112.4297" style="stroke:#E7E7E7;stroke-width:1;"/><line style="stroke:#E7E7E7;stroke-width:1;" x1="30.4321" x2="225.6777" y1="112.4297" y2="112.4297"/><text fill="#FFFFFF" font-family="sans-serif" font-size="13" lengthAdjust="spacing" textLength="177.2456" x="37.4321" y="107.3638">login(username, password)</text></g><g class="message" data-participant-1="Auth" data-participant-2="A"><polygon fill="#E7E7E7" points="41.4321,137.5625,31.4321,141.5625,41.4321,145.5625,37.4321,141.5625" style="stroke:#E7E7E7;stroke-width:1;"/><line style="stroke:#E7E7E7;stroke-width:1;stroke-dasharray:2.0,2.0;" x1="35.4321" x2="230.6777" y1="141.5625" y2="141.5625"/><text fill="#FFFFFF" font-family="sans-serif" font-size="13" lengthAdjust="spacing" textLength="121.3291" x="47.4321" y="136.4966">auth token + roles</text></g><g class="message" data-participant-1="A" data-participant-2="UserSvc"><polygon fill="#E7E7E7" points="380.5674,166.6953,390.5674,170.6953,380.5674,174.6953,384.5674,170.6953" style="stroke:#E7E7E7;stroke-width:1;"/><line style="stroke:#E7E7E7;stroke-width:1;" x1="30.4321" x2="386.5674" y1="170.6953" y2="170.6953"/><text fill="#FFFFFF" font-family="sans-serif" font-size="13" lengthAdjust="spacing" textLength="172.6816" x="37.4321" y="165.6294">getPendingRoleRequests()</text></g><g class="message" data-participant-1="UserSvc" data-participant-2="A"><polygon fill="#E7E7E7" points="41.4321,195.8281,31.4321,199.8281,41.4321,203.8281,37.4321,199.8281" style="stroke:#E7E7E7;stroke-width:1;"/><line style="stroke:#E7E7E7;stroke-width:1;stroke-dasharray:2.0,2.0;" x1="35.4321" x2="391.5674" y1="199.8281" y2="199.8281"/><text fill="#FFFFFF" font-family="sans-serif" font-size="13" lengthAdjust="spacing" textLength="125.4043" x="47.4321" y="194.7622">list of role requests</text></g><g class="message" data-participant-1="A" data-participant-2="UserSvc"><polygon fill="#E7E7E7" points="380.5674,224.9609,390.5674,228.9609,380.5674,232.9609,384.5674,228.9609" style="stroke:#E7E7E7;stroke-width:1;"/><line style="stroke:#E7E7E7;stroke-width:1;" x1="30.4321" x2="386.5674" y1="228.9609" y2="228.9609"/><text fill="#FFFFFF" font-family="sans-serif" font-size="13" lengthAdjust="spacing" textLength="207.3779" x="37.4321" y="223.895">approveRoleRequest(requestId)</text></g><g class="message" data-participant-1="UserSvc" data-participant-2="UserSvc"><line style="stroke:#E7E7E7;stroke-width:1;" x1="392.5674" x2="434.5674" y1="258.0938" y2="258.0938"/><line style="stroke:#E7E7E7;stroke-width:1;" x1="434.5674" x2="434.5674" y1="258.0938" y2="271.0938"/><line style="stroke:#E7E7E7;stroke-width:1;" x1="393.5674" x2="434.5674" y1="271.0938" y2="271.0938"/><polygon fill="#E7E7E7" points="403.5674,267.0938,393.5674,271.0938,403.5674,275.0938,399.5674,271.0938" style="stroke:#E7E7E7;stroke-width:1;"/><text fill="#FFFFFF" font-family="sans-serif" font-size="13" lengthAdjust="spacing" textLength="320.3662" x="399.5674" y="253.0278">updateRoleRequestStatus(requestId, APPROVED)</text></g><g class="message" data-participant-1="UserSvc" data-participant-2="UserSvc"><line style="stroke:#E7E7E7;stroke-width:1;" x1="392.5674" x2="434.5674" y1="300.2266" y2="300.2266"/><line style="stroke:#E7E7E7;stroke-width:1;" x1="434.5674" x2="434.5674" y1="300.2266" y2="313.2266"/><line style="stroke:#E7E7E7;stroke-width:1;" x1="393.5674" x2="434.5674" y1="313.2266" y2="313.2266"/><polygon fill="#E7E7E7" points="403.5674,309.2266,393.5674,313.2266,403.5674,317.2266,399.5674,313.2266" style="stroke:#E7E7E7;stroke-width:1;"/><text fill="#FFFFFF" font-family="sans-serif" font-size="13" lengthAdjust="spacing" textLength="182.3491" x="399.5674" y="295.1606">addRoleToUser(userId, role)</text></g><g class="message" data-participant-1="UserSvc" data-participant-2="A"><polygon fill="#E7E7E7" points="41.4321,338.3594,31.4321,342.3594,41.4321,346.3594,37.4321,342.3594" style="stroke:#E7E7E7;stroke-width:1;"/><line style="stroke:#E7E7E7;stroke-width:1;stroke-dasharray:2.0,2.0;" x1="35.4321" x2="391.5674" y1="342.3594" y2="342.3594"/><text fill="#FFFFFF" font-family="sans-serif" font-size="13" lengthAdjust="spacing" textLength="143.5776" x="47.4321" y="337.2935">approval confirmation</text></g><!--SRC=[TP31JiGW48RlFCLaJstSVG4F9YHwy61iMlK-WTbAR05XgAylO3TYDXxvv_k_p82ANG2fLsC18qWXF0OsodYq30UP-1qc2fjHTAX03luYhv42FA75cLRAGKkNsRGf8IISxceNRc5nix5ToYEBAnt1OunVBkXULE1Ko8nXUR3x80it4Dn2STViqepCn0DPRUmyvlb8duaYnwuN5-JYManaSEUgWR1pLphqFhYD6bUtiu-wSRQLv3LosvWOESNVtX7aC8pFRm_t_nXGwr9_SIMglr9APT5UYAj3VbR41PIpPnDMPEFiDm00]--></g></svg>