<svg xmlns="http://www.w3.org/2000/svg" xmlns:xlink="http://www.w3.org/1999/xlink" contentStyleType="text/css" data-diagram-type="CLASS" height="491px" preserveAspectRatio="none" style="width:489px;height:491px;background:#1B1B1B;" version="1.1" viewBox="0 0 489 491" width="489px" zoomAndPan="magnify"><defs/><g><rect fill="#1B1B1B" height="491" style="stroke:none;stroke-width:1;" width="489" x="0" y="0"/><!--class User--><g class="entity" data-entity="User" data-source-line="3" data-uid="ent0002" id="entity_User"><rect fill="#313139" height="145.7813" rx="2.5" ry="2.5" style="stroke:#E7E7E7;stroke-width:0.5;" width="162.7939" x="7" y="7"/><ellipse cx="68.1919" cy="23" fill="#2E5233" rx="11" ry="11" style="stroke:#E7E7E7;stroke-width:1;"/><path d="M71.1606,28.6406 Q70.5825,28.9375 69.9419,29.0781 Q69.3013,29.2344 68.5981,29.2344 Q66.0981,29.2344 64.77,27.5938 Q63.4575,25.9375 63.4575,22.8125 Q63.4575,19.6875 64.77,18.0313 Q66.0981,16.375 68.5981,16.375 Q69.3013,16.375 69.9419,16.5313 Q70.5981,16.6875 71.1606,16.9844 L71.1606,19.7031 Q70.5356,19.125 69.9419,18.8594 Q69.3481,18.5781 68.7231,18.5781 Q67.3794,18.5781 66.6919,19.6563 Q66.0044,20.7188 66.0044,22.8125 Q66.0044,24.9063 66.6919,25.9844 Q67.3794,27.0469 68.7231,27.0469 Q69.3481,27.0469 69.9419,26.7813 Q70.5356,26.5 71.1606,25.9219 L71.1606,28.6406 Z " fill="#FFFFFF"/><text fill="#FFFFFF" font-family="sans-serif" font-size="14" lengthAdjust="spacing" textLength="31.9102" x="88.6919" y="27.8467">User</text><line style="stroke:#E7E7E7;stroke-width:0.5;" x1="8" x2="168.7939" y1="39" y2="39"/><text fill="#FFFFFF" font-family="sans-serif" font-size="14" lengthAdjust="spacing" textLength="63.082" x="13" y="55.9951">+Long id</text><text fill="#FFFFFF" font-family="sans-serif" font-size="14" lengthAdjust="spacing" textLength="128.2012" x="13" y="72.292">+String username</text><text fill="#FFFFFF" font-family="sans-serif" font-size="14" lengthAdjust="spacing" textLength="124.6738" x="13" y="88.5889">+String password</text><text fill="#FFFFFF" font-family="sans-serif" font-size="14" lengthAdjust="spacing" textLength="96.5713" x="13" y="104.8857">+String email</text><text fill="#FFFFFF" font-family="sans-serif" font-size="14" lengthAdjust="spacing" textLength="150.7939" x="13" y="121.1826">+boolean isApproved</text><text fill="#FFFFFF" font-family="sans-serif" font-size="14" lengthAdjust="spacing" textLength="127.5449" x="13" y="137.4795">+Set&lt;Role&gt; roles</text><line style="stroke:#E7E7E7;stroke-width:0.5;" x1="8" x2="168.7939" y1="144.7813" y2="144.7813"/></g><!--class Role--><g class="entity" data-entity="Role" data-source-line="12" data-uid="ent0003" id="entity_Role"><rect fill="#313139" height="80.5938" rx="2.5" ry="2.5" style="stroke:#E7E7E7;stroke-width:0.5;" width="109.665" x="33.56" y="403.68"/><ellipse cx="69.6511" cy="419.68" fill="#2E5233" rx="11" ry="11" style="stroke:#E7E7E7;stroke-width:1;"/><path d="M72.6199,425.3206 Q72.0417,425.6175 71.4011,425.7581 Q70.7605,425.9144 70.0574,425.9144 Q67.5574,425.9144 66.2292,424.2737 Q64.9167,422.6175 64.9167,419.4925 Q64.9167,416.3675 66.2292,414.7112 Q67.5574,413.055 70.0574,413.055 Q70.7605,413.055 71.4011,413.2112 Q72.0574,413.3675 72.6199,413.6644 L72.6199,416.3831 Q71.9949,415.805 71.4011,415.5394 Q70.8074,415.2581 70.1824,415.2581 Q68.8386,415.2581 68.1511,416.3362 Q67.4636,417.3987 67.4636,419.4925 Q67.4636,421.5862 68.1511,422.6644 Q68.8386,423.7269 70.1824,423.7269 Q70.8074,423.7269 71.4011,423.4612 Q71.9949,423.18 72.6199,422.6019 L72.6199,425.3206 Z " fill="#FFFFFF"/><text fill="#FFFFFF" font-family="sans-serif" font-size="14" lengthAdjust="spacing" textLength="30.7959" x="88.338" y="424.5267">Role</text><line style="stroke:#E7E7E7;stroke-width:0.5;" x1="34.56" x2="142.225" y1="435.68" y2="435.68"/><text fill="#FFFFFF" font-family="sans-serif" font-size="14" lengthAdjust="spacing" textLength="63.082" x="39.56" y="452.6751">+Long id</text><text fill="#FFFFFF" font-family="sans-serif" font-size="14" lengthAdjust="spacing" textLength="97.665" x="39.56" y="468.972">+String name</text><line style="stroke:#E7E7E7;stroke-width:0.5;" x1="34.56" x2="142.225" y1="476.2737" y2="476.2737"/></g><!--class RoleRequest--><g class="entity" data-entity="RoleRequest" data-source-line="17" data-uid="ent0004" id="entity_RoleRequest"><rect fill="#313139" height="96.8906" rx="2.5" ry="2.5" style="stroke:#E7E7E7;stroke-width:0.5;" width="363.4697" x="118.66" y="229.79"/><ellipse cx="251.9984" cy="245.79" fill="#2E5233" rx="11" ry="11" style="stroke:#E7E7E7;stroke-width:1;"/><path d="M254.9671,251.4306 Q254.389,251.7275 253.7484,251.8681 Q253.1078,252.0244 252.4046,252.0244 Q249.9046,252.0244 248.5765,250.3838 Q247.264,248.7275 247.264,245.6025 Q247.264,242.4775 248.5765,240.8213 Q249.9046,239.165 252.4046,239.165 Q253.1078,239.165 253.7484,239.3213 Q254.4046,239.4775 254.9671,239.7744 L254.9671,242.4931 Q254.3421,241.915 253.7484,241.6494 Q253.1546,241.3681 252.5296,241.3681 Q251.1859,241.3681 250.4984,242.4463 Q249.8109,243.5088 249.8109,245.6025 Q249.8109,247.6963 250.4984,248.7744 Q251.1859,249.8369 252.5296,249.8369 Q253.1546,249.8369 253.7484,249.5713 Q254.3421,249.29 254.9671,248.7119 L254.9671,251.4306 Z " fill="#FFFFFF"/><text fill="#FFFFFF" font-family="sans-serif" font-size="14" lengthAdjust="spacing" textLength="88.293" x="272.4984" y="250.6367">RoleRequest</text><line style="stroke:#E7E7E7;stroke-width:0.5;" x1="119.66" x2="481.1297" y1="261.79" y2="261.79"/><text fill="#FFFFFF" font-family="sans-serif" font-size="14" lengthAdjust="spacing" textLength="63.082" x="124.66" y="278.7851">+Long id</text><text fill="#FFFFFF" font-family="sans-serif" font-size="14" lengthAdjust="spacing" textLength="351.4697" x="124.66" y="295.082">+String status  // PENDING, APPROVED, REJECTED</text><text fill="#FFFFFF" font-family="sans-serif" font-size="14" lengthAdjust="spacing" textLength="136.6299" x="124.66" y="311.3789">+Date requestDate</text><line style="stroke:#E7E7E7;stroke-width:0.5;" x1="119.66" x2="481.1297" y1="318.6806" y2="318.6806"/></g><!--link User to Role--><g class="link" data-entity-1="User" data-entity-2="Role" data-source-line="23" data-uid="lnk5" id="link_User_Role"><path codeLine="23" d="M81.67,153.22 C77.97,202.19 74.64,268.33 77.4,326.68 C78.6,352.2 81.28,380.77 83.7,403.21" fill="none" id="User-Role" style="stroke:#E7E7E7;stroke-width:1;"/><text fill="#FFFFFF" font-family="sans-serif" font-size="13" lengthAdjust="spacing" textLength="22.9785" x="78.4" y="282.7969">has</text><text fill="#FFFFFF" font-family="sans-serif" font-size="13" lengthAdjust="spacing" textLength="36.5625" x="43.4164" y="172.7445">many</text><text fill="#FFFFFF" font-family="sans-serif" font-size="13" lengthAdjust="spacing" textLength="36.5625" x="44.1282" y="392.5949">many</text></g><!--link User to RoleRequest--><g class="link" data-entity-1="User" data-entity-2="RoleRequest" data-source-line="24" data-uid="lnk6" id="link_User_RoleRequest"><path codeLine="24" d="M166.43,153.17 C193.94,178.64 224.16,206.62 248.92,229.56" fill="none" id="User-RoleRequest" style="stroke:#E7E7E7;stroke-width:1;"/><text fill="#FFFFFF" font-family="sans-serif" font-size="13" lengthAdjust="spacing" textLength="51.4097" x="213.4" y="195.8569">submits</text><text fill="#FFFFFF" font-family="sans-serif" font-size="13" lengthAdjust="spacing" textLength="8.271" x="165.4992" y="172.9425">1</text><text fill="#FFFFFF" font-family="sans-serif" font-size="13" lengthAdjust="spacing" textLength="36.5625" x="203.1896" y="218.7366">many</text></g><!--link RoleRequest to Role--><g class="link" data-entity-1="RoleRequest" data-entity-2="Role" data-source-line="25" data-uid="lnk7" id="link_RoleRequest_Role"><path codeLine="25" d="M238.51,327.03 C207.1,351.29 174.1482,376.742 144.3882,399.732" fill="none" id="RoleRequest-to-Role" style="stroke:#E7E7E7;stroke-width:1;"/><polygon fill="#E7E7E7" points="139.64,403.4,149.2077,401.0634,143.5968,400.3433,144.3169,394.7325,139.64,403.4" style="stroke:#E7E7E7;stroke-width:1;"/><text fill="#FFFFFF" font-family="sans-serif" font-size="13" lengthAdjust="spacing" textLength="65.9521" x="195.4" y="369.7469">requested</text><text fill="#FFFFFF" font-family="sans-serif" font-size="13" lengthAdjust="spacing" textLength="8.271" x="221.6749" y="346.6704">1</text><text fill="#FFFFFF" font-family="sans-serif" font-size="13" lengthAdjust="spacing" textLength="8.271" x="139.4878" y="392.5152">1</text></g><!--SRC=[TL3VIyCm47xFNt7irOtDro63OeDCP9PEVRzknmnhaffB51N_TvEqXIhi9NVt_RZl29-LwT2XXaEBp8NtJZN1q_PWpLvz4Qo4o0myCpdu5W1N3zQSG1rJku_oE8J86TGqWRhe-R1kgYADgarpOsrBQ41nqNNElbEl8dzJHs83BhuiViRa15vApgb_b3Mz1M9_oS0UVM20vH8gkIktkxiv55LLFxx8SWwrl9UtJx9CXX8zWUktfJx5v4-OQJIVCrWinYuVk8PNv45m_PyTZre3XqOhpsAAzlfDhiEk8PUElm00]--></g></svg>