<svg xmlns="http://www.w3.org/2000/svg" xmlns:xlink="http://www.w3.org/1999/xlink" contentStyleType="text/css" data-diagram-type="DESCRIPTION" height="815px" preserveAspectRatio="none" style="width:691px;height:815px;background:#1B1B1B;" version="1.1" viewBox="0 0 691 815" width="691px" zoomAndPan="magnify"><defs/><g><rect fill="#1B1B1B" height="815" style="stroke:none;stroke-width:1;" width="691" x="0" y="0"/><!--cluster ADRASHA Microservices--><g class="cluster" data-entity="ADRASHA Microservices" data-source-line="3" data-uid="ent0002" id="cluster_ADRASHA Microservices"><path d="M8.5,6 L199.416,6 A3.75,3.75 0 0 1 201.916,8.5 L208.916,28.2969 L681.58,28.2969 A2.5,2.5 0 0 1 684.08,30.7969 L684.08,805.5 A2.5,2.5 0 0 1 681.58,808 L8.5,808 A2.5,2.5 0 0 1 6,805.5 L6,8.5 A2.5,2.5 0 0 1 8.5,6" fill="none" style="stroke:#FFFFFF;stroke-width:1.5;"/><line style="stroke:#FFFFFF;stroke-width:1.5;" x1="6" x2="208.916" y1="28.2969" y2="28.2969"/><text fill="#FFFFFF" font-family="sans-serif" font-size="14" font-weight="bold" lengthAdjust="spacing" textLength="189.916" x="10" y="20.9951">ADRASHA Microservices</text></g><!--cluster Core Services--><g class="cluster" data-entity="Core Services" data-source-line="7" data-uid="ent0005" id="cluster_Core Services"><path d="M408.33,231 L517.0302,231 A3.75,3.75 0 0 1 519.5302,233.5 L526.5302,253.2969 L640.11,253.2969 A2.5,2.5 0 0 1 642.61,255.7969 L642.61,599.5 A2.5,2.5 0 0 1 640.11,602 L408.33,602 A2.5,2.5 0 0 1 405.83,599.5 L405.83,233.5 A2.5,2.5 0 0 1 408.33,231" fill="none" style="stroke:#FFFFFF;stroke-width:1.5;"/><line style="stroke:#FFFFFF;stroke-width:1.5;" x1="405.83" x2="526.5302" y1="253.2969" y2="253.2969"/><text fill="#FFFFFF" font-family="sans-serif" font-size="14" font-weight="bold" lengthAdjust="spacing" textLength="107.7002" x="409.83" y="245.9951">Core Services</text></g><!--cluster Vaccination Services--><g class="cluster" data-entity="Vaccination Services" data-source-line="15" data-uid="ent0011" id="cluster_Vaccination Services"><path d="M390.86,626 L555.4371,626 A3.75,3.75 0 0 1 557.9371,628.5 L564.9371,648.2969 L657.58,648.2969 A2.5,2.5 0 0 1 660.08,650.7969 L660.08,781.5 A2.5,2.5 0 0 1 657.58,784 L390.86,784 A2.5,2.5 0 0 1 388.36,781.5 L388.36,628.5 A2.5,2.5 0 0 1 390.86,626" fill="none" style="stroke:#FFFFFF;stroke-width:1.5;"/><line style="stroke:#FFFFFF;stroke-width:1.5;" x1="388.36" x2="564.9371" y1="648.2969" y2="648.2969"/><text fill="#FFFFFF" font-family="sans-serif" font-size="14" font-weight="bold" lengthAdjust="spacing" textLength="163.5771" x="392.36" y="640.9951">Vaccination Services</text></g><!--cluster Support Services--><g class="cluster" data-entity="Support Services" data-source-line="20" data-uid="ent0014" id="cluster_Support Services"><path d="M438.28,49 L573.9958,49 A3.75,3.75 0 0 1 576.4958,51.5 L583.4958,71.2969 L610.16,71.2969 A2.5,2.5 0 0 1 612.66,73.7969 L612.66,204.5 A2.5,2.5 0 0 1 610.16,207 L438.28,207 A2.5,2.5 0 0 1 435.78,204.5 L435.78,51.5 A2.5,2.5 0 0 1 438.28,49" fill="none" style="stroke:#FFFFFF;stroke-width:1.5;"/><line style="stroke:#FFFFFF;stroke-width:1.5;" x1="435.78" x2="583.4958" y1="71.2969" y2="71.2969"/><text fill="#FFFFFF" font-family="sans-serif" font-size="14" font-weight="bold" lengthAdjust="spacing" textLength="134.7158" x="439.78" y="63.9951">Support Services</text></g><!--entity Eureka--><g class="entity" data-entity="Eureka" data-source-line="4" data-uid="ent0003" id="entity_Eureka"><rect fill="#313139" height="36.2969" rx="2.5" ry="2.5" style="stroke:#E7E7E7;stroke-width:0.5;" width="187.3574" x="22" y="468.85"/><text fill="#FFFFFF" font-family="sans-serif" font-size="14" lengthAdjust="spacing" textLength="167.3574" x="32" y="491.8451">Eureka Service Registry</text></g><!--entity APIGW--><g class="entity" data-entity="APIGW" data-source-line="5" data-uid="ent0004" id="entity_APIGW"><rect fill="#313139" height="36.2969" rx="2.5" ry="2.5" style="stroke:#E7E7E7;stroke-width:0.5;" width="108.4434" x="61.46" y="189.85"/><text fill="#FFFFFF" font-family="sans-serif" font-size="14" lengthAdjust="spacing" textLength="88.4434" x="71.46" y="212.8451">API Gateway</text></g><!--entity AuthSvc--><g class="entity" data-entity="AuthSvc" data-source-line="8" data-uid="ent0006" id="entity_AuthSvc"><rect fill="#313139" height="36.2969" rx="2.5" ry="2.5" style="stroke:#E7E7E7;stroke-width:0.5;" width="178.9629" x="434.74" y="407.85"/><text fill="#FFFFFF" font-family="sans-serif" font-size="14" lengthAdjust="spacing" textLength="158.9629" x="444.74" y="430.8451">Authentication Service</text></g><!--entity UserSvc--><g class="entity" data-entity="UserSvc" data-source-line="9" data-uid="ent0007" id="entity_UserSvc"><rect fill="#313139" height="36.2969" rx="2.5" ry="2.5" style="stroke:#E7E7E7;stroke-width:0.5;" width="204.7754" x="421.83" y="549.85"/><text fill="#FFFFFF" font-family="sans-serif" font-size="14" lengthAdjust="spacing" textLength="184.7754" x="431.83" y="572.8451">User Management Service</text></g><!--entity FamilySvc--><g class="entity" data-entity="FamilySvc" data-source-line="10" data-uid="ent0008" id="entity_FamilySvc"><rect fill="#313139" height="36.2969" rx="2.5" ry="2.5" style="stroke:#E7E7E7;stroke-width:0.5;" width="122.5254" x="462.96" y="336.85"/><text fill="#FFFFFF" font-family="sans-serif" font-size="14" lengthAdjust="spacing" textLength="102.5254" x="472.96" y="359.8451">Family Service</text></g><!--entity AddrSvc--><g class="entity" data-entity="AddrSvc" data-source-line="11" data-uid="ent0009" id="entity_AddrSvc"><rect fill="#313139" height="36.2969" rx="2.5" ry="2.5" style="stroke:#E7E7E7;stroke-width:0.5;" width="132.499" x="457.97" y="265.85"/><text fill="#FFFFFF" font-family="sans-serif" font-size="14" lengthAdjust="spacing" textLength="112.499" x="467.97" y="288.8451">Address Service</text></g><!--entity HealthSvc--><g class="entity" data-entity="HealthSvc" data-source-line="12" data-uid="ent0010" id="entity_HealthSvc"><rect fill="#313139" height="36.2969" rx="2.5" ry="2.5" style="stroke:#E7E7E7;stroke-width:0.5;" width="170.6982" x="438.87" y="478.85"/><text fill="#FFFFFF" font-family="sans-serif" font-size="14" lengthAdjust="spacing" textLength="150.6982" x="448.87" y="501.8451">Health Profile Service</text></g><!--entity VacCenterSvc--><g class="entity" data-entity="VacCenterSvc" data-source-line="16" data-uid="ent0012" id="entity_VacCenterSvc"><rect fill="#313139" height="36.2969" rx="2.5" ry="2.5" style="stroke:#E7E7E7;stroke-width:0.5;" width="209.4717" x="419.48" y="660.85"/><text fill="#FFFFFF" font-family="sans-serif" font-size="14" lengthAdjust="spacing" textLength="189.4717" x="429.48" y="683.8451">Vaccination Center Service</text></g><!--entity VacSchedSvc--><g class="entity" data-entity="VacSchedSvc" data-source-line="17" data-uid="ent0013" id="entity_VacSchedSvc"><rect fill="#313139" height="36.2969" rx="2.5" ry="2.5" style="stroke:#E7E7E7;stroke-width:0.5;" width="239.7207" x="404.36" y="731.85"/><text fill="#FFFFFF" font-family="sans-serif" font-size="14" lengthAdjust="spacing" textLength="219.7207" x="414.36" y="754.8451">Vaccination Scheduling Service</text></g><!--entity ReportSvc--><g class="entity" data-entity="ReportSvc" data-source-line="21" data-uid="ent0015" id="entity_ReportSvc"><rect fill="#313139" height="36.2969" rx="2.5" ry="2.5" style="stroke:#E7E7E7;stroke-width:0.5;" width="144.8789" x="451.78" y="154.85"/><text fill="#FFFFFF" font-family="sans-serif" font-size="14" lengthAdjust="spacing" textLength="124.8789" x="461.78" y="177.8451">Reporting Service</text></g><!--entity NotifySvc--><g class="entity" data-entity="NotifySvc" data-source-line="22" data-uid="ent0016" id="entity_NotifySvc"><rect fill="#313139" height="36.2969" rx="2.5" ry="2.5" style="stroke:#E7E7E7;stroke-width:0.5;" width="131.9795" x="458.23" y="83.85"/><text fill="#FFFFFF" font-family="sans-serif" font-size="14" lengthAdjust="spacing" textLength="111.9795" x="468.23" y="106.8451">Logging Service</text></g><!--link APIGW to AuthSvc--><g class="link" data-entity-1="APIGW" data-entity-2="AuthSvc" data-source-line="26" data-uid="lnk17" id="link_APIGW_AuthSvc"><path d="M170.23,207.2 C243.08,206.38 365.24,206.07 372.36,213 C386.53,226.82 367.79,375.7 380.36,391 C393.89,407.48 407.9846,415.453 428.6546,420.703" fill="none" id="APIGW-to-AuthSvc" style="stroke:#E7E7E7;stroke-width:1;"/><polygon fill="#E7E7E7" points="434.47,422.18,426.7317,416.0875,429.6239,420.9491,424.7623,423.8413,434.47,422.18" style="stroke:#E7E7E7;stroke-width:1;"/></g><!--link APIGW to UserSvc--><g class="link" data-entity-1="APIGW" data-entity-2="UserSvc" data-source-line="27" data-uid="lnk18" id="link_APIGW_UserSvc"><path d="M170.22,211.92 C245.12,217.42 372.14,226.77 372.36,227 C384.09,239.31 369.69,519.76 380.36,533 C390.93,546.12 399.8987,552.7845 415.7687,558.4445" fill="none" id="APIGW-to-UserSvc" style="stroke:#E7E7E7;stroke-width:1;"/><polygon fill="#E7E7E7" points="421.42,560.46,414.2867,553.6691,416.7106,558.7804,411.5993,561.2043,421.42,560.46" style="stroke:#E7E7E7;stroke-width:1;"/></g><!--link APIGW to FamilySvc--><g class="link" data-entity-1="APIGW" data-entity-2="FamilySvc" data-source-line="28" data-uid="lnk19" id="link_APIGW_FamilySvc"><path d="M170.29,203.74 C240.93,198.71 357.97,192.59 372.36,206 C390.93,223.32 363.99,300.58 380.36,320 C400.27,343.63 427.3021,352.1204 456.5821,355.1604" fill="none" id="APIGW-to-FamilySvc" style="stroke:#E7E7E7;stroke-width:1;"/><polygon fill="#E7E7E7" points="462.55,355.78,454.0112,350.872,457.5767,355.2636,453.185,358.8292,462.55,355.78" style="stroke:#E7E7E7;stroke-width:1;"/></g><!--link APIGW to AddrSvc--><g class="link" data-entity-1="APIGW" data-entity-2="AddrSvc" data-source-line="29" data-uid="lnk20" id="link_APIGW_AddrSvc"><path d="M170.36,200.94 C234.38,193.42 337.17,184.42 372.36,199 C377,200.92 376.32,204 380.36,207 C412,230.55 446.3413,248.7937 475.8713,262.8337" fill="none" id="APIGW-to-AddrSvc" style="stroke:#E7E7E7;stroke-width:1;"/><polygon fill="#E7E7E7" points="481.29,265.41,474.8795,257.933,476.7744,263.2631,471.4444,265.158,481.29,265.41" style="stroke:#E7E7E7;stroke-width:1;"/></g><!--link APIGW to HealthSvc--><g class="link" data-entity-1="APIGW" data-entity-2="HealthSvc" data-source-line="30" data-uid="lnk21" id="link_APIGW_HealthSvc"><path d="M170.26,208.68 C243.15,209.87 365.38,212.92 372.36,220 C391.25,239.16 363.4,441.11 380.36,462 C394.68,479.65 410.4592,487.9202 432.5892,492.9502" fill="none" id="APIGW-to-HealthSvc" style="stroke:#E7E7E7;stroke-width:1;"/><polygon fill="#E7E7E7" points="438.44,494.28,430.5504,488.3847,433.5644,493.1718,428.7773,496.1858,438.44,494.28" style="stroke:#E7E7E7;stroke-width:1;"/></g><!--link APIGW to VacCenterSvc--><g class="link" data-entity-1="APIGW" data-entity-2="VacCenterSvc" data-source-line="31" data-uid="lnk22" id="link_APIGW_VacCenterSvc"><path d="M170.35,215.65 C191.78,218.53 216.71,221.67 239.36,224 C254.1,225.51 362.16,223.25 372.36,234 C386.43,248.84 369.68,584.56 380.36,602 C397.56,630.12 423.3241,646.3546 452.2641,658.1546" fill="none" id="APIGW-to-VacCenterSvc" style="stroke:#E7E7E7;stroke-width:1;"/><polygon fill="#E7E7E7" points="457.82,660.42,450.9964,653.318,453.1901,658.5322,447.9759,660.7259,457.82,660.42" style="stroke:#E7E7E7;stroke-width:1;"/></g><!--link APIGW to VacSchedSvc--><g class="link" data-entity-1="APIGW" data-entity-2="VacSchedSvc" data-source-line="32" data-uid="lnk23" id="link_APIGW_VacSchedSvc"><path d="M170.22,219.36 C191.63,223.56 216.58,228.02 239.36,231 C254.05,232.92 362.19,230.22 372.36,241 C390.43,260.16 363.93,694.42 380.36,715 C386.89,723.18 389.7635,726.6932 398.7735,731.7732" fill="none" id="APIGW-to-VacSchedSvc" style="stroke:#E7E7E7;stroke-width:1;"/><polygon fill="#E7E7E7" points="404,734.72,398.1248,726.8155,399.6446,732.2643,394.1957,733.7841,404,734.72" style="stroke:#E7E7E7;stroke-width:1;"/></g><!--link APIGW to ReportSvc--><g class="link" data-entity-1="APIGW" data-entity-2="ReportSvc" data-source-line="33" data-uid="lnk24" id="link_APIGW_ReportSvc"><path d="M170.17,196.25 C191.58,192 216.54,187.61 239.36,185 C311.27,176.78 388.0206,174.1276 445.5406,173.2876" fill="none" id="APIGW-to-ReportSvc" style="stroke:#E7E7E7;stroke-width:1;"/><polygon fill="#E7E7E7" points="451.54,173.2,442.4826,169.3318,446.5405,173.273,442.5994,177.331,451.54,173.2" style="stroke:#E7E7E7;stroke-width:1;"/></g><!--link APIGW to NotifySvc--><g class="link" data-entity-1="APIGW" data-entity-2="NotifySvc" data-source-line="34" data-uid="lnk25" id="link_APIGW_NotifySvc"><path d="M170.28,191.74 C191.71,185.38 216.65,178.15 239.36,172 C313.95,151.81 394.3813,132.252 452.0513,118.602" fill="none" id="APIGW-to-NotifySvc" style="stroke:#E7E7E7;stroke-width:1;"/><polygon fill="#E7E7E7" points="457.89,117.22,448.2107,115.4005,453.0244,118.3716,450.0533,123.1854,457.89,117.22" style="stroke:#E7E7E7;stroke-width:1;"/></g><!--link Eureka to AuthSvc--><g class="link" data-entity-1="Eureka" data-entity-2="AuthSvc" data-source-line="36" data-uid="lnk26" id="link_Eureka_AuthSvc"><path d="M209.78,489.52 C219.76,489.71 229.77,489.88 239.36,490 C298.46,490.72 325.33,525.81 372.36,490 C382.99,481.9 370.77,470.32 380.36,461 C395.01,446.77 408.6646,439.5634 428.4746,434.2534" fill="none" id="Eureka-to-AuthSvc" style="stroke:#E7E7E7;stroke-width:1;stroke-dasharray:7.0,7.0;"/><polygon fill="#E7E7E7" points="434.27,432.7,424.5413,431.1666,429.4405,433.9945,426.6125,438.8938,434.27,432.7" style="stroke:#E7E7E7;stroke-width:1;"/><text fill="#FFFFFF" font-family="sans-serif" font-size="13" lengthAdjust="spacing" textLength="131.1553" x="240.36" y="486.0669">Service Registration</text></g><!--link Eureka to UserSvc--><g class="link" data-entity-1="Eureka" data-entity-2="UserSvc" data-source-line="37" data-uid="lnk27" id="link_Eureka_UserSvc"><path d="M131.34,505.38 C152.25,529.95 193.25,572.34 239.36,589 C312.67,615.5 397.6,602.8187 456.45,588.0687" fill="none" id="Eureka-to-UserSvc" style="stroke:#E7E7E7;stroke-width:1;stroke-dasharray:7.0,7.0;"/><polygon fill="#E7E7E7" points="462.27,586.61,452.5676,584.9181,457.42,587.8256,454.5125,592.678,462.27,586.61" style="stroke:#E7E7E7;stroke-width:1;"/><text fill="#FFFFFF" font-family="sans-serif" font-size="13" lengthAdjust="spacing" textLength="131.1553" x="240.36" y="585.0669">Service Registration</text></g><!--link Eureka to FamilySvc--><g class="link" data-entity-1="Eureka" data-entity-2="FamilySvc" data-source-line="38" data-uid="lnk28" id="link_Eureka_FamilySvc"><path d="M209.58,472.52 C277.85,461.02 360.69,444.95 372.36,433 C385.94,419.09 367,404.13 380.36,390 C401.32,367.82 427.8814,359.4233 456.6014,356.0333" fill="none" id="Eureka-to-FamilySvc" style="stroke:#E7E7E7;stroke-width:1;stroke-dasharray:7.0,7.0;"/><polygon fill="#E7E7E7" points="462.56,355.33,453.1532,352.4126,457.5945,355.9161,454.0909,360.3574,462.56,355.33" style="stroke:#E7E7E7;stroke-width:1;"/><text fill="#FFFFFF" font-family="sans-serif" font-size="13" lengthAdjust="spacing" textLength="131.1553" x="240.36" y="429.0669">Service Registration</text></g><!--link Eureka to AddrSvc--><g class="link" data-entity-1="Eureka" data-entity-2="AddrSvc" data-source-line="39" data-uid="lnk29" id="link_Eureka_AddrSvc"><path d="M141.84,468.66 C165.86,451.88 203.59,427.4 239.36,412 C295.6,387.78 331.84,421.92 372.36,376 C389.28,356.82 363.2,337.98 380.36,319 C399.79,297.5 424.1329,288.9747 451.8229,285.2747" fill="none" id="Eureka-to-AddrSvc" style="stroke:#E7E7E7;stroke-width:1;stroke-dasharray:7.0,7.0;"/><polygon fill="#E7E7E7" points="457.77,284.48,448.3195,281.7072,452.814,285.1422,449.3791,289.6368,457.77,284.48" style="stroke:#E7E7E7;stroke-width:1;"/><text fill="#FFFFFF" font-family="sans-serif" font-size="13" lengthAdjust="spacing" textLength="131.1553" x="240.36" y="372.0669">Service Registration</text></g><!--link Eureka to HealthSvc--><g class="link" data-entity-1="Eureka" data-entity-2="HealthSvc" data-source-line="40" data-uid="lnk30" id="link_Eureka_HealthSvc"><path d="M145.02,505.51 C169.03,520.02 204.94,539.03 239.36,547 C296.95,560.33 321.67,577.41 372.36,547 C378.84,543.11 374.39,536.64 380.36,532 C397.09,519 412.1737,512.2231 432.7837,507.0031" fill="none" id="Eureka-to-HealthSvc" style="stroke:#E7E7E7;stroke-width:1;stroke-dasharray:7.0,7.0;"/><polygon fill="#E7E7E7" points="438.6,505.53,428.8934,503.8621,433.753,506.7576,430.8576,511.6173,438.6,505.53" style="stroke:#E7E7E7;stroke-width:1;"/><text fill="#FFFFFF" font-family="sans-serif" font-size="13" lengthAdjust="spacing" textLength="131.1553" x="240.36" y="543.0669">Service Registration</text></g><!--link Eureka to VacCenterSvc--><g class="link" data-entity-1="Eureka" data-entity-2="VacCenterSvc" data-source-line="41" data-uid="lnk31" id="link_Eureka_VacCenterSvc"><path d="M126.92,505.58 C145.12,536.69 186.23,598.84 239.36,629 C293.75,659.88 356.7322,672.0042 413.0522,676.8642" fill="none" id="Eureka-to-VacCenterSvc" style="stroke:#E7E7E7;stroke-width:1;stroke-dasharray:7.0,7.0;"/><polygon fill="#E7E7E7" points="419.03,677.38,410.4072,672.6211,414.0485,676.9501,409.7194,680.5914,419.03,677.38" style="stroke:#E7E7E7;stroke-width:1;"/><text fill="#FFFFFF" font-family="sans-serif" font-size="13" lengthAdjust="spacing" textLength="131.1553" x="240.36" y="625.0669">Service Registration</text></g><!--link Eureka to VacSchedSvc--><g class="link" data-entity-1="Eureka" data-entity-2="VacSchedSvc" data-source-line="42" data-uid="lnk32" id="link_Eureka_VacSchedSvc"><path d="M121.75,505.36 C134.21,546.72 170.41,647.4 239.36,696 C286.92,729.53 343.6908,743.1532 398.0908,748.6832" fill="none" id="Eureka-to-VacSchedSvc" style="stroke:#E7E7E7;stroke-width:1;stroke-dasharray:7.0,7.0;"/><polygon fill="#E7E7E7" points="404.06,749.29,395.5107,744.4003,399.0856,748.7843,394.7016,752.3593,404.06,749.29" style="stroke:#E7E7E7;stroke-width:1;"/><text fill="#FFFFFF" font-family="sans-serif" font-size="13" lengthAdjust="spacing" textLength="131.1553" x="240.36" y="692.0669">Service Registration</text></g><!--link Eureka to ReportSvc--><g class="link" data-entity-1="Eureka" data-entity-2="ReportSvc" data-source-line="43" data-uid="lnk33" id="link_Eureka_ReportSvc"><path d="M128.64,468.61 C148.26,439.93 190.08,384.75 239.36,355 C291.78,323.35 332.4,365.4 372.36,319 C392.5,295.61 363.03,275.55 380.36,250 C399.26,222.13 426.0881,205.7852 455.2481,193.8352" fill="none" id="Eureka-to-ReportSvc" style="stroke:#E7E7E7;stroke-width:1;stroke-dasharray:7.0,7.0;"/><polygon fill="#E7E7E7" points="460.8,191.56,450.9554,191.2716,456.1734,193.456,453.989,198.6741,460.8,191.56" style="stroke:#E7E7E7;stroke-width:1;"/><text fill="#FFFFFF" font-family="sans-serif" font-size="13" lengthAdjust="spacing" textLength="131.1553" x="240.36" y="315.0669">Service Registration</text></g><!--link Eureka to NotifySvc--><g class="link" data-entity-1="Eureka" data-entity-2="NotifySvc" data-source-line="44" data-uid="lnk34" id="link_Eureka_NotifySvc"><path d="M125.83,468.62 C144.11,433.06 187.84,353.46 239.36,298 C289.87,243.62 335.03,261.16 372.36,197 C385.89,173.75 362.39,157.02 380.36,137 C399.8,115.34 424.3116,106.815 452.1216,103.145" fill="none" id="Eureka-to-NotifySvc" style="stroke:#E7E7E7;stroke-width:1;stroke-dasharray:7.0,7.0;"/><polygon fill="#E7E7E7" points="458.07,102.36,448.624,99.5719,453.113,103.0142,449.6707,107.5031,458.07,102.36" style="stroke:#E7E7E7;stroke-width:1;"/><text fill="#FFFFFF" font-family="sans-serif" font-size="13" lengthAdjust="spacing" textLength="131.1553" x="240.36" y="193.0669">Service Registration</text></g><!--SRC=[ZPF1ReCm38RlF8NLU_i0Eqn2tTPEMgSAjEqS1JT4fGI5q0bDVVU51XA2iYaI5tv_jd_RKE59WH8WEIiL55mYLLpKIT8GUYOCOPK-PMc-J-70gHGjoYkdsAxW9m4OO5ApIbFFdSGpWTp48KF6MoNx5P0MJCpdq-Chx8Z2Rs8O_RxxqeX-REUja3XL73lwDJfLOgqu9OFbYJJbT2Y_qcN6X_OF1rBhyXUTwQKCiK3A2xdmglT88mNOj2WajgtlH6i1T8-aKYKSfJZn2hqC4p8vjyLAFWcblFRc3MrcZctre7hgUGSTDch0cDU1bbXq5Q_PClqU2LlCkwOHKlrdByE1M9OrQi3Ics1i2RyBnK_zvE2M9FSF2DRhHtjxfqodTOexuInll9HJt2MSvktEa-rEdEf6Sffpdem_pMPZJSF3yXUwNs9EZiD4a7R827OSFeAqIubWvykAmwSbHj1skH6iNVeVx2y0]--></g></svg>