<svg xmlns="http://www.w3.org/2000/svg" xmlns:xlink="http://www.w3.org/1999/xlink" contentStyleType="text/css" data-diagram-type="CLASS" height="632px" preserveAspectRatio="none" style="width:631px;height:632px;background:#1B1B1B;" version="1.1" viewBox="0 0 631 632" width="631px" zoomAndPan="magnify"><defs/><g><rect fill="#1B1B1B" height="632" style="stroke:none;stroke-width:1;" width="631" x="0" y="0"/><!--class Family--><g class="entity" data-entity="Family" data-source-line="3" data-uid="ent0002" id="entity_Family"><rect fill="#313139" height="80.5938" rx="2.5" ry="2.5" style="stroke:#E7E7E7;stroke-width:0.5;" width="208.499" x="212.2" y="7"/><ellipse cx="289.0325" cy="23" fill="#2E5233" rx="11" ry="11" style="stroke:#E7E7E7;stroke-width:1;"/><path d="M292.0013,28.6406 Q291.4231,28.9375 290.7825,29.0781 Q290.1419,29.2344 289.4388,29.2344 Q286.9388,29.2344 285.6106,27.5938 Q284.2981,25.9375 284.2981,22.8125 Q284.2981,19.6875 285.6106,18.0313 Q286.9388,16.375 289.4388,16.375 Q290.1419,16.375 290.7825,16.5313 Q291.4388,16.6875 292.0013,16.9844 L292.0013,19.7031 Q291.3763,19.125 290.7825,18.8594 Q290.1888,18.5781 289.5638,18.5781 Q288.22,18.5781 287.5325,19.6563 Q286.845,20.7188 286.845,22.8125 Q286.845,24.9063 287.5325,25.9844 Q288.22,27.0469 289.5638,27.0469 Q290.1888,27.0469 290.7825,26.7813 Q291.3763,26.5 292.0013,25.9219 L292.0013,28.6406 Z " fill="#FFFFFF"/><text fill="#FFFFFF" font-family="sans-serif" font-size="14" lengthAdjust="spacing" textLength="46.334" x="309.5325" y="27.8467">Family</text><line style="stroke:#E7E7E7;stroke-width:0.5;" x1="213.2" x2="419.699" y1="39" y2="39"/><text fill="#FFFFFF" font-family="sans-serif" font-size="14" lengthAdjust="spacing" textLength="63.082" x="218.2" y="55.9951">+Long id</text><text fill="#FFFFFF" font-family="sans-serif" font-size="14" lengthAdjust="spacing" textLength="196.499" x="218.2" y="72.292">+String headOfFamilyName</text><line style="stroke:#E7E7E7;stroke-width:0.5;" x1="213.2" x2="419.699" y1="79.5938" y2="79.5938"/></g><!--class Member--><g class="entity" data-entity="Member" data-source-line="8" data-uid="ent0003" id="entity_Member"><rect fill="#313139" height="129.4844" rx="2.5" ry="2.5" style="stroke:#E7E7E7;stroke-width:0.5;" width="177.3408" x="227.78" y="164.59"/><ellipse cx="283.4074" cy="180.59" fill="#2E5233" rx="11" ry="11" style="stroke:#E7E7E7;stroke-width:1;"/><path d="M286.3762,186.2306 Q285.7981,186.5275 285.1574,186.6681 Q284.5168,186.8244 283.8137,186.8244 Q281.3137,186.8244 279.9856,185.1837 Q278.6731,183.5275 278.6731,180.4025 Q278.6731,177.2775 279.9856,175.6212 Q281.3137,173.965 283.8137,173.965 Q284.5168,173.965 285.1574,174.1212 Q285.8137,174.2775 286.3762,174.5744 L286.3762,177.2931 Q285.7512,176.715 285.1574,176.4494 Q284.5637,176.1681 283.9387,176.1681 Q282.5949,176.1681 281.9074,177.2462 Q281.2199,178.3087 281.2199,180.4025 Q281.2199,182.4962 281.9074,183.5744 Q282.5949,184.6369 283.9387,184.6369 Q284.5637,184.6369 285.1574,184.3712 Q285.7512,184.09 286.3762,183.5119 L286.3762,186.2306 Z " fill="#FFFFFF"/><text fill="#FFFFFF" font-family="sans-serif" font-size="14" lengthAdjust="spacing" textLength="57.5859" x="303.9074" y="185.4367">Member</text><line style="stroke:#E7E7E7;stroke-width:0.5;" x1="228.78" x2="404.1208" y1="196.59" y2="196.59"/><text fill="#FFFFFF" font-family="sans-serif" font-size="14" lengthAdjust="spacing" textLength="63.082" x="233.78" y="213.5851">+Long id</text><text fill="#FFFFFF" font-family="sans-serif" font-size="14" lengthAdjust="spacing" textLength="97.665" x="233.78" y="229.882">+String name</text><text fill="#FFFFFF" font-family="sans-serif" font-size="14" lengthAdjust="spacing" textLength="60.5117" x="233.78" y="246.1789">+int age</text><text fill="#FFFFFF" font-family="sans-serif" font-size="14" lengthAdjust="spacing" textLength="107.5908" x="233.78" y="262.4757">+String gender</text><text fill="#FFFFFF" font-family="sans-serif" font-size="14" lengthAdjust="spacing" textLength="165.3408" x="233.78" y="278.7726">+String relationToHead</text><line style="stroke:#E7E7E7;stroke-width:0.5;" x1="228.78" x2="404.1208" y1="286.0744" y2="286.0744"/></g><!--class HealthProfile--><g class="entity" data-entity="HealthProfile" data-source-line="16" data-uid="ent0004" id="entity_HealthProfile"><rect fill="#313139" height="64.2969" rx="2.5" ry="2.5" style="stroke:#E7E7E7;stroke-width:0.5;" width="122.0566" x="255.42" y="371.08"/><ellipse cx="270.42" cy="387.08" fill="#2E5233" rx="11" ry="11" style="stroke:#E7E7E7;stroke-width:1;"/><path d="M273.3887,392.7206 Q272.8106,393.0175 272.17,393.1581 Q271.5294,393.3144 270.8262,393.3144 Q268.3262,393.3144 266.9981,391.6737 Q265.6856,390.0175 265.6856,386.8925 Q265.6856,383.7675 266.9981,382.1112 Q268.3262,380.455 270.8262,380.455 Q271.5294,380.455 272.17,380.6112 Q272.8262,380.7675 273.3887,381.0644 L273.3887,383.7831 Q272.7637,383.205 272.17,382.9394 Q271.5762,382.6581 270.9512,382.6581 Q269.6075,382.6581 268.92,383.7362 Q268.2325,384.7987 268.2325,386.8925 Q268.2325,388.9862 268.92,390.0644 Q269.6075,391.1269 270.9512,391.1269 Q271.5762,391.1269 272.17,390.8612 Q272.7637,390.58 273.3887,390.0019 L273.3887,392.7206 Z " fill="#FFFFFF"/><text fill="#FFFFFF" font-family="sans-serif" font-size="14" lengthAdjust="spacing" textLength="90.0566" x="284.42" y="391.9267">HealthProfile</text><line style="stroke:#E7E7E7;stroke-width:0.5;" x1="256.42" x2="376.4766" y1="403.08" y2="403.08"/><text fill="#FFFFFF" font-family="sans-serif" font-size="14" lengthAdjust="spacing" textLength="63.082" x="261.42" y="420.0751">+Long id</text><line style="stroke:#E7E7E7;stroke-width:0.5;" x1="256.42" x2="376.4766" y1="427.3769" y2="427.3769"/></g><!--class VaccinationRecord--><g class="entity" data-entity="VaccinationRecord" data-source-line="20" data-uid="ent0005" id="entity_VaccinationRecord"><rect fill="#313139" height="96.8906" rx="2.5" ry="2.5" style="stroke:#E7E7E7;stroke-width:0.5;" width="164.8994" x="7" y="520.52"/><ellipse cx="22.8745" cy="536.52" fill="#2E5233" rx="11" ry="11" style="stroke:#E7E7E7;stroke-width:1;"/><path d="M25.8433,542.1606 Q25.2651,542.4575 24.6245,542.5981 Q23.9839,542.7544 23.2808,542.7544 Q20.7808,542.7544 19.4526,541.1138 Q18.1401,539.4575 18.1401,536.3325 Q18.1401,533.2075 19.4526,531.5513 Q20.7808,529.895 23.2808,529.895 Q23.9839,529.895 24.6245,530.0513 Q25.2808,530.2075 25.8433,530.5044 L25.8433,533.2231 Q25.2183,532.645 24.6245,532.3794 Q24.0308,532.0981 23.4058,532.0981 Q22.062,532.0981 21.3745,533.1763 Q20.687,534.2388 20.687,536.3325 Q20.687,538.4263 21.3745,539.5044 Q22.062,540.5669 23.4058,540.5669 Q24.0308,540.5669 24.6245,540.3013 Q25.2183,540.02 25.8433,539.4419 L25.8433,542.1606 Z " fill="#FFFFFF"/><text fill="#FFFFFF" font-family="sans-serif" font-size="14" lengthAdjust="spacing" textLength="130.9561" x="37.0688" y="541.3667">VaccinationRecord</text><line style="stroke:#E7E7E7;stroke-width:0.5;" x1="8" x2="170.8994" y1="552.52" y2="552.52"/><text fill="#FFFFFF" font-family="sans-serif" font-size="14" lengthAdjust="spacing" textLength="63.082" x="13" y="569.5151">+Long id</text><text fill="#FFFFFF" font-family="sans-serif" font-size="14" lengthAdjust="spacing" textLength="152.8994" x="13" y="585.812">+String vaccineName</text><text fill="#FFFFFF" font-family="sans-serif" font-size="14" lengthAdjust="spacing" textLength="121.7207" x="13" y="602.1089">+Date dateGiven</text><line style="stroke:#E7E7E7;stroke-width:0.5;" x1="8" x2="170.8994" y1="609.4106" y2="609.4106"/></g><!--class PregnancyDetails--><g class="entity" data-entity="PregnancyDetails" data-source-line="26" data-uid="ent0006" id="entity_PregnancyDetails"><rect fill="#313139" height="96.8906" rx="2.5" ry="2.5" style="stroke:#E7E7E7;stroke-width:0.5;" width="218.3018" x="207.3" y="520.52"/><ellipse cx="250.9923" cy="536.52" fill="#2E5233" rx="11" ry="11" style="stroke:#E7E7E7;stroke-width:1;"/><path d="M253.9611,542.1606 Q253.383,542.4575 252.7423,542.5981 Q252.1017,542.7544 251.3986,542.7544 Q248.8986,542.7544 247.5705,541.1138 Q246.258,539.4575 246.258,536.3325 Q246.258,533.2075 247.5705,531.5513 Q248.8986,529.895 251.3986,529.895 Q252.1017,529.895 252.7423,530.0513 Q253.3986,530.2075 253.9611,530.5044 L253.9611,533.2231 Q253.3361,532.645 252.7423,532.3794 Q252.1486,532.0981 251.5236,532.0981 Q250.1798,532.0981 249.4923,533.1763 Q248.8048,534.2388 248.8048,536.3325 Q248.8048,538.4263 249.4923,539.5044 Q250.1798,540.5669 251.5236,540.5669 Q252.1486,540.5669 252.7423,540.3013 Q253.3361,540.02 253.9611,539.4419 L253.9611,542.1606 Z " fill="#FFFFFF"/><text fill="#FFFFFF" font-family="sans-serif" font-size="14" lengthAdjust="spacing" textLength="122.541" x="271.3684" y="541.3667">PregnancyDetails</text><line style="stroke:#E7E7E7;stroke-width:0.5;" x1="208.3" x2="424.6018" y1="552.52" y2="552.52"/><text fill="#FFFFFF" font-family="sans-serif" font-size="14" lengthAdjust="spacing" textLength="63.082" x="213.3" y="569.5151">+Long id</text><text fill="#FFFFFF" font-family="sans-serif" font-size="14" lengthAdjust="spacing" textLength="206.3018" x="213.3" y="585.812">+Date expectedDeliveryDate</text><text fill="#FFFFFF" font-family="sans-serif" font-size="14" lengthAdjust="spacing" textLength="138.8311" x="213.3" y="602.1089">+int antenatalVisits</text><line style="stroke:#E7E7E7;stroke-width:0.5;" x1="208.3" x2="424.6018" y1="609.4106" y2="609.4106"/></g><!--class NCDRecord--><g class="entity" data-entity="NCDRecord" data-source-line="32" data-uid="ent0007" id="entity_NCDRecord"><rect fill="#313139" height="113.1875" rx="2.5" ry="2.5" style="stroke:#E7E7E7;stroke-width:0.5;" width="164.4346" x="460.23" y="512.37"/><ellipse cx="498.7021" cy="528.37" fill="#2E5233" rx="11" ry="11" style="stroke:#E7E7E7;stroke-width:1;"/><path d="M501.6708,534.0106 Q501.0927,534.3075 500.4521,534.4481 Q499.8114,534.6044 499.1083,534.6044 Q496.6083,534.6044 495.2802,532.9637 Q493.9677,531.3075 493.9677,528.1825 Q493.9677,525.0575 495.2802,523.4012 Q496.6083,521.745 499.1083,521.745 Q499.8114,521.745 500.4521,521.9012 Q501.1083,522.0575 501.6708,522.3544 L501.6708,525.0731 Q501.0458,524.495 500.4521,524.2294 Q499.8583,523.9481 499.2333,523.9481 Q497.8896,523.9481 497.2021,525.0262 Q496.5146,526.0887 496.5146,528.1825 Q496.5146,530.2762 497.2021,531.3544 Q497.8896,532.4169 499.2333,532.4169 Q499.8583,532.4169 500.4521,532.1512 Q501.0458,531.87 501.6708,531.2919 L501.6708,534.0106 Z " fill="#FFFFFF"/><text fill="#FFFFFF" font-family="sans-serif" font-size="14" lengthAdjust="spacing" textLength="80.2744" x="517.9181" y="533.2167">NCDRecord</text><line style="stroke:#E7E7E7;stroke-width:0.5;" x1="461.23" x2="623.6646" y1="544.37" y2="544.37"/><text fill="#FFFFFF" font-family="sans-serif" font-size="14" lengthAdjust="spacing" textLength="63.082" x="466.23" y="561.3651">+Long id</text><text fill="#FFFFFF" font-family="sans-serif" font-size="14" lengthAdjust="spacing" textLength="152.4346" x="466.23" y="577.662">+String diseaseName</text><text fill="#FFFFFF" font-family="sans-serif" font-size="14" lengthAdjust="spacing" textLength="149.2627" x="466.23" y="593.9589">+Date diagnosisDate</text><text fill="#FFFFFF" font-family="sans-serif" font-size="14" lengthAdjust="spacing" textLength="115.7051" x="466.23" y="610.2557">+String remarks</text><line style="stroke:#E7E7E7;stroke-width:0.5;" x1="461.23" x2="623.6646" y1="617.5575" y2="617.5575"/></g><!--link Family to Member--><g class="link" data-entity-1="Family" data-entity-2="Member" data-source-line="39" data-uid="lnk8" id="link_Family_Member"><path codeLine="39" d="M316.45,87.8 C316.45,110.16 316.45,138.67 316.45,164.15" fill="none" id="Family-Member" style="stroke:#E7E7E7;stroke-width:1;"/><text fill="#FFFFFF" font-family="sans-serif" font-size="13" lengthAdjust="spacing" textLength="53.8726" x="317.45" y="130.6569">includes</text><text fill="#FFFFFF" font-family="sans-serif" font-size="13" lengthAdjust="spacing" textLength="8.271" x="307.8342" y="107.528">1</text><text fill="#FFFFFF" font-family="sans-serif" font-size="13" lengthAdjust="spacing" textLength="36.5625" x="278.6227" y="153.7284">many</text></g><!--link Member to HealthProfile--><g class="link" data-entity-1="Member" data-entity-2="HealthProfile" data-source-line="40" data-uid="lnk9" id="link_Member_HealthProfile"><path codeLine="40" d="M316.45,294.34 C316.45,320.49 316.45,349.55 316.45,370.92" fill="none" id="Member-HealthProfile" style="stroke:#E7E7E7;stroke-width:1;"/><text fill="#FFFFFF" font-family="sans-serif" font-size="13" lengthAdjust="spacing" textLength="22.9785" x="317.45" y="337.1469">has</text><text fill="#FFFFFF" font-family="sans-serif" font-size="13" lengthAdjust="spacing" textLength="8.271" x="308.0273" y="314.3447">1</text><text fill="#FFFFFF" font-family="sans-serif" font-size="13" lengthAdjust="spacing" textLength="8.271" x="307.6533" y="359.7901">1</text></g><!--link HealthProfile to VaccinationRecord--><g class="link" data-entity-1="HealthProfile" data-entity-2="VaccinationRecord" data-source-line="41" data-uid="lnk10" id="link_HealthProfile_VaccinationRecord"><path codeLine="41" d="M272.68,435.8 C239.57,459.68 193.53,492.89 155.89,520.04" fill="none" id="HealthProfile-VaccinationRecord" style="stroke:#E7E7E7;stroke-width:1;"/><text fill="#FFFFFF" font-family="sans-serif" font-size="13" lengthAdjust="spacing" textLength="39.8569" x="231.45" y="478.4369">tracks</text><text fill="#FFFFFF" font-family="sans-serif" font-size="13" lengthAdjust="spacing" textLength="8.271" x="255.6" y="455.5182">1</text><text fill="#FFFFFF" font-family="sans-serif" font-size="13" lengthAdjust="spacing" textLength="36.5625" x="126.437" y="509.5337">many</text></g><!--link HealthProfile to PregnancyDetails--><g class="link" data-entity-1="HealthProfile" data-entity-2="PregnancyDetails" data-source-line="42" data-uid="lnk11" id="link_HealthProfile_PregnancyDetails"><path codeLine="42" d="M316.45,435.8 C316.45,459.68 316.45,492.89 316.45,520.04" fill="none" id="HealthProfile-PregnancyDetails" style="stroke:#E7E7E7;stroke-width:1;"/><text fill="#FFFFFF" font-family="sans-serif" font-size="13" lengthAdjust="spacing" textLength="78.5078" x="317.45" y="478.4369">mayContain</text><text fill="#FFFFFF" font-family="sans-serif" font-size="13" lengthAdjust="spacing" textLength="8.271" x="307.7136" y="455.5182">1</text><text fill="#FFFFFF" font-family="sans-serif" font-size="13" lengthAdjust="spacing" textLength="8.271" x="307.9306" y="509.5337">1</text></g><!--link HealthProfile to NCDRecord--><g class="link" data-entity-1="HealthProfile" data-entity-2="NCDRecord" data-source-line="43" data-uid="lnk12" id="link_HealthProfile_NCDRecord"><path codeLine="43" d="M362.32,435.69 C375.94,445.14 390.85,455.6 404.45,465.37 C425.18,480.27 447.45,496.66 467.93,511.89" fill="none" id="HealthProfile-NCDRecord" style="stroke:#E7E7E7;stroke-width:1;"/><text fill="#FFFFFF" font-family="sans-serif" font-size="13" lengthAdjust="spacing" textLength="48.8135" x="427.45" y="478.4369">records</text><text fill="#FFFFFF" font-family="sans-serif" font-size="13" lengthAdjust="spacing" textLength="8.271" x="362.3276" y="455.3872">1</text><text fill="#FFFFFF" font-family="sans-serif" font-size="13" lengthAdjust="spacing" textLength="36.5625" x="421.2652" y="501.4982">many</text></g><!--SRC=[VL7BRi8m4BpdArQvLaZjDRUAg0-ffQXKt1Tx2QlOQsGRrBJglzT92I55SB6zwvcTyJZKB5lqQ44P3E4-Hi-hNQHdvMJ1NmItMTRTm0DQDWryPm0tBqugODqU5ucGYWsXVbl_OMPeAVlfUQzaL-GlyQJ5ff8b0bPqSbEHQF8d3Ky68plvS4z9R118bOcRkNThDZJMEMAMg1HBHtydvRo-v6VV0Mbsi5LY9D1fUUGzoJ1lxgaI5DMK595DE1lN4UbpIogIBiaakc_Qvl6n4YaPGhFam34CesVJyhf5pO4m_BF8M8aB77g9OsOMVTrDF_nVVfV3P0AvHMdo_dCAO55cfobaXquFIziutm8s6B9nRpppFEi2eaTLNwAbxIpF0YmsKoUfagjgGrn5Ucrx2By0]--></g></svg>