<svg xmlns="http://www.w3.org/2000/svg" xmlns:xlink="http://www.w3.org/1999/xlink" contentStyleType="text/css" data-diagram-type="SEQUENCE" height="473px" preserveAspectRatio="none" style="width:594px;height:473px;background:#1B1B1B;" version="1.1" viewBox="0 0 594 473" width="594px" zoomAndPan="magnify"><defs/><g><rect fill="#1B1B1B" height="473" style="stroke:none;stroke-width:1;" width="594" x="0" y="0"/><g><title>ASHA</title><rect fill="#000000" fill-opacity="0.00000" height="311.3281" width="8" x="23.2842" y="81.2969"/><line style="stroke:#E7E7E7;stroke-width:0.5;stroke-dasharray:5.0,5.0;" x1="27" x2="27" y1="81.2969" y2="392.625"/></g><g><title>Auth Service</title><rect fill="#000000" fill-opacity="0.00000" height="311.3281" width="8" x="224.5298" y="81.2969"/><line style="stroke:#E7E7E7;stroke-width:0.5;stroke-dasharray:5.0,5.0;" x1="228.0278" x2="228.0278" y1="81.2969" y2="392.625"/></g><g><title>Member Service</title><rect fill="#000000" fill-opacity="0.00000" height="311.3281" width="8" x="349.9204" y="81.2969"/><line style="stroke:#E7E7E7;stroke-width:0.5;stroke-dasharray:5.0,5.0;" x1="353.0317" x2="353.0317" y1="81.2969" y2="392.625"/></g><g><title>HealthProfile Service</title><rect fill="#000000" fill-opacity="0.00000" height="311.3281" width="8" x="503.9331" y="81.2969"/><line style="stroke:#E7E7E7;stroke-width:0.5;stroke-dasharray:5.0,5.0;" x1="507.8091" x2="507.8091" y1="81.2969" y2="392.625"/></g><g class="participant participant-head" data-participant="A"><text fill="#FFFFFF" font-family="sans-serif" font-size="14" lengthAdjust="spacing" textLength="38.5684" x="5" y="77.9951">ASHA</text><ellipse cx="27.2842" cy="13.5" fill="#222222" rx="8" ry="8" style="stroke:#E7E7E7;stroke-width:0.5;"/><path d="M27.2842,21.5 L27.2842,48.5 M14.2842,29.5 L40.2842,29.5 M27.2842,48.5 L14.2842,63.5 M27.2842,48.5 L40.2842,63.5" fill="none" style="stroke:#E7E7E7;stroke-width:0.5;"/></g><g class="participant participant-tail" data-participant="A"><text fill="#FFFFFF" font-family="sans-serif" font-size="14" lengthAdjust="spacing" textLength="38.5684" x="5" y="404.6201">ASHA</text><ellipse cx="27.2842" cy="416.4219" fill="#222222" rx="8" ry="8" style="stroke:#E7E7E7;stroke-width:0.5;"/><path d="M27.2842,424.4219 L27.2842,451.4219 M14.2842,432.4219 L40.2842,432.4219 M27.2842,451.4219 L14.2842,466.4219 M27.2842,451.4219 L40.2842,466.4219" fill="none" style="stroke:#E7E7E7;stroke-width:0.5;"/></g><g class="participant participant-head" data-participant="Auth"><rect fill="#222222" height="30.2969" rx="2.5" ry="2.5" style="stroke:#E7E7E7;stroke-width:0.5;" width="103.0039" x="177.0278" y="50"/><text fill="#FFFFFF" font-family="sans-serif" font-size="14" lengthAdjust="spacing" textLength="89.0039" x="184.0278" y="69.9951">Auth Service</text></g><g class="participant participant-tail" data-participant="Auth"><rect fill="#222222" height="30.2969" rx="2.5" ry="2.5" style="stroke:#E7E7E7;stroke-width:0.5;" width="103.0039" x="177.0278" y="391.625"/><text fill="#FFFFFF" font-family="sans-serif" font-size="14" lengthAdjust="spacing" textLength="89.0039" x="184.0278" y="411.6201">Auth Service</text></g><g class="participant participant-head" data-participant="MemberSvc"><rect fill="#222222" height="30.2969" rx="2.5" ry="2.5" style="stroke:#E7E7E7;stroke-width:0.5;" width="127.7773" x="290.0317" y="50"/><text fill="#FFFFFF" font-family="sans-serif" font-size="14" lengthAdjust="spacing" textLength="113.7773" x="297.0317" y="69.9951">Member Service</text></g><g class="participant participant-tail" data-participant="MemberSvc"><rect fill="#222222" height="30.2969" rx="2.5" ry="2.5" style="stroke:#E7E7E7;stroke-width:0.5;" width="127.7773" x="290.0317" y="391.625"/><text fill="#FFFFFF" font-family="sans-serif" font-size="14" lengthAdjust="spacing" textLength="113.7773" x="297.0317" y="411.6201">Member Service</text></g><g class="participant participant-head" data-participant="HealthSvc"><rect fill="#222222" height="30.2969" rx="2.5" ry="2.5" style="stroke:#E7E7E7;stroke-width:0.5;" width="160.248" x="427.8091" y="50"/><text fill="#FFFFFF" font-family="sans-serif" font-size="14" lengthAdjust="spacing" textLength="146.248" x="434.8091" y="69.9951">HealthProfile Service</text></g><g class="participant participant-tail" data-participant="HealthSvc"><rect fill="#222222" height="30.2969" rx="2.5" ry="2.5" style="stroke:#E7E7E7;stroke-width:0.5;" width="160.248" x="427.8091" y="391.625"/><text fill="#FFFFFF" font-family="sans-serif" font-size="14" lengthAdjust="spacing" textLength="146.248" x="434.8091" y="411.6201">HealthProfile Service</text></g><g class="message" data-participant-1="A" data-participant-2="Auth"><polygon fill="#E7E7E7" points="216.5298,108.4297,226.5298,112.4297,216.5298,116.4297,220.5298,112.4297" style="stroke:#E7E7E7;stroke-width:1;"/><line style="stroke:#E7E7E7;stroke-width:1;" x1="27.2842" x2="222.5298" y1="112.4297" y2="112.4297"/><text fill="#FFFFFF" font-family="sans-serif" font-size="13" lengthAdjust="spacing" textLength="177.2456" x="34.2842" y="107.3638">login(username, password)</text></g><g class="message" data-participant-1="Auth" data-participant-2="A"><polygon fill="#E7E7E7" points="38.2842,137.5625,28.2842,141.5625,38.2842,145.5625,34.2842,141.5625" style="stroke:#E7E7E7;stroke-width:1;"/><line style="stroke:#E7E7E7;stroke-width:1;stroke-dasharray:2.0,2.0;" x1="32.2842" x2="227.5298" y1="141.5625" y2="141.5625"/><text fill="#FFFFFF" font-family="sans-serif" font-size="13" lengthAdjust="spacing" textLength="121.3291" x="44.2842" y="136.4966">auth token + roles</text></g><g class="message" data-participant-1="A" data-participant-2="MemberSvc"><polygon fill="#E7E7E7" points="341.9204,166.6953,351.9204,170.6953,341.9204,174.6953,345.9204,170.6953" style="stroke:#E7E7E7;stroke-width:1;"/><line style="stroke:#E7E7E7;stroke-width:1;" x1="27.2842" x2="347.9204" y1="170.6953" y2="170.6953"/><text fill="#FFFFFF" font-family="sans-serif" font-size="13" lengthAdjust="spacing" textLength="217.8706" x="34.2842" y="165.6294">searchMember(familyId or filters)</text></g><g class="message" data-participant-1="MemberSvc" data-participant-2="A"><polygon fill="#E7E7E7" points="38.2842,195.8281,28.2842,199.8281,38.2842,203.8281,34.2842,199.8281" style="stroke:#E7E7E7;stroke-width:1;"/><line style="stroke:#E7E7E7;stroke-width:1;stroke-dasharray:2.0,2.0;" x1="32.2842" x2="352.9204" y1="199.8281" y2="199.8281"/><text fill="#FFFFFF" font-family="sans-serif" font-size="13" lengthAdjust="spacing" textLength="99.9883" x="44.2842" y="194.7622">memberDetails</text></g><g class="message" data-participant-1="A" data-participant-2="HealthSvc"><polygon fill="#E7E7E7" points="495.9331,224.9609,505.9331,228.9609,495.9331,232.9609,499.9331,228.9609" style="stroke:#E7E7E7;stroke-width:1;"/><line style="stroke:#E7E7E7;stroke-width:1;" x1="27.2842" x2="501.9331" y1="228.9609" y2="228.9609"/><text fill="#FFFFFF" font-family="sans-serif" font-size="13" lengthAdjust="spacing" textLength="381.0435" x="34.2842" y="223.895">addVaccinationRecord(memberId, vaccine, date, centerId)</text></g><g class="message" data-participant-1="HealthSvc" data-participant-2="A"><polygon fill="#E7E7E7" points="38.2842,254.0938,28.2842,258.0938,38.2842,262.0938,34.2842,258.0938" style="stroke:#E7E7E7;stroke-width:1;"/><line style="stroke:#E7E7E7;stroke-width:1;stroke-dasharray:2.0,2.0;" x1="32.2842" x2="506.9331" y1="258.0938" y2="258.0938"/><text fill="#FFFFFF" font-family="sans-serif" font-size="13" lengthAdjust="spacing" textLength="50.8511" x="44.2842" y="253.0278">success</text></g><g class="message" data-participant-1="A" data-participant-2="HealthSvc"><polygon fill="#E7E7E7" points="495.9331,283.2266,505.9331,287.2266,495.9331,291.2266,499.9331,287.2266" style="stroke:#E7E7E7;stroke-width:1;"/><line style="stroke:#E7E7E7;stroke-width:1;" x1="27.2842" x2="501.9331" y1="287.2266" y2="287.2266"/><text fill="#FFFFFF" font-family="sans-serif" font-size="13" lengthAdjust="spacing" textLength="342.3926" x="34.2842" y="282.1606">updatePregnancyDetails(memberId, dueDate, visits)</text></g><g class="message" data-participant-1="HealthSvc" data-participant-2="A"><polygon fill="#E7E7E7" points="38.2842,312.3594,28.2842,316.3594,38.2842,320.3594,34.2842,316.3594" style="stroke:#E7E7E7;stroke-width:1;"/><line style="stroke:#E7E7E7;stroke-width:1;stroke-dasharray:2.0,2.0;" x1="32.2842" x2="506.9331" y1="316.3594" y2="316.3594"/><text fill="#FFFFFF" font-family="sans-serif" font-size="13" lengthAdjust="spacing" textLength="50.8511" x="44.2842" y="311.2935">success</text></g><g class="message" data-participant-1="A" data-participant-2="HealthSvc"><polygon fill="#E7E7E7" points="495.9331,341.4922,505.9331,345.4922,495.9331,349.4922,499.9331,345.4922" style="stroke:#E7E7E7;stroke-width:1;"/><line style="stroke:#E7E7E7;stroke-width:1;" x1="27.2842" x2="501.9331" y1="345.4922" y2="345.4922"/><text fill="#FFFFFF" font-family="sans-serif" font-size="13" lengthAdjust="spacing" textLength="396.4492" x="34.2842" y="340.4263">addNCDRecord(memberId, disease, diagnosisDate, remarks)</text></g><g class="message" data-participant-1="HealthSvc" data-participant-2="A"><polygon fill="#E7E7E7" points="38.2842,370.625,28.2842,374.625,38.2842,378.625,34.2842,374.625" style="stroke:#E7E7E7;stroke-width:1;"/><line style="stroke:#E7E7E7;stroke-width:1;stroke-dasharray:2.0,2.0;" x1="32.2842" x2="506.9331" y1="374.625" y2="374.625"/><text fill="#FFFFFF" font-family="sans-serif" font-size="13" lengthAdjust="spacing" textLength="50.8511" x="44.2842" y="369.5591">success</text></g><!--SRC=[bP3DQiCm3CVlUGhHKyBQ5zXX49P3UzWe2-oksMegcjX1SZBwzhEJVYni37OnMFhzFsmqmGkKzRO4L2Yph4S9RBX75s1L3k48DSd8XbOJ40TBv8Mw3v85D8_gqIp9BM4RZdln1svf8PWtIP2Li7cQKk0HMj-momSbSTZH6dfK_VHYYsm2DecC6APBy2Toy03YMzABpQr7X9HGp76Uv0Vik3tlBCIdnpA1H8liJb-DksbIKK1khvwtgYdOsdSqXXq6zkwDJEoMpwATNSCuxM9lYo6UXbn8YoAxUroJT326zBUCeK_glL3Zq9dpfSot53jGDVcFh1pqV-xn1Q_FrO_cbkDtQMhEs3Ylh7E4K8To-YlZ2m00]--></g></svg>