<svg xmlns="http://www.w3.org/2000/svg" xmlns:xlink="http://www.w3.org/1999/xlink" contentStyleType="text/css" data-diagram-type="CLASS" height="260px" preserveAspectRatio="none" style="width:973px;height:260px;background:#1B1B1B;" version="1.1" viewBox="0 0 973 260" width="973px" zoomAndPan="magnify"><defs/><g><rect fill="#1B1B1B" height="260" style="stroke:none;stroke-width:1;" width="973" x="0" y="0"/><!--cluster adrasha-core--><g class="cluster" data-entity="adrasha-core" data-source-line="1" data-uid="ent0002" id="cluster_adrasha-core"><path d="M518.5,154 L623.1943,154 A3.75,3.75 0 0 1 625.6943,156.5 L632.6943,176.2969 L905.5,176.2969 A2.5,2.5 0 0 1 908,178.7969 L908,250.5 A2.5,2.5 0 0 1 905.5,253 L518.5,253 A2.5,2.5 0 0 1 516,250.5 L516,156.5 A2.5,2.5 0 0 1 518.5,154" fill="none" style="stroke:#FFFFFF;stroke-width:1.5;"/><line style="stroke:#FFFFFF;stroke-width:1.5;" x1="516" x2="632.6943" y1="176.2969" y2="176.2969"/><text fill="#FFFFFF" font-family="sans-serif" font-size="14" font-weight="bold" lengthAdjust="spacing" textLength="103.6943" x="520" y="168.9951">adrasha-core</text></g><!--cluster Authentication Service--><g class="cluster" data-entity="Authentication Service" data-source-line="7" data-uid="ent0006" id="cluster_Authentication Service"><path d="M8.5,6 L189.8115,6 A3.75,3.75 0 0 1 192.3115,8.5 L199.3115,28.2969 L451.5,28.2969 A2.5,2.5 0 0 1 454,30.7969 L454,102.5 A2.5,2.5 0 0 1 451.5,105 L8.5,105 A2.5,2.5 0 0 1 6,102.5 L6,8.5 A2.5,2.5 0 0 1 8.5,6" fill="none" style="stroke:#FFFFFF;stroke-width:1.5;"/><line style="stroke:#FFFFFF;stroke-width:1.5;" x1="6" x2="199.3115" y1="28.2969" y2="28.2969"/><text fill="#FFFFFF" font-family="sans-serif" font-size="14" font-weight="bold" lengthAdjust="spacing" textLength="180.3115" x="10" y="20.9951">Authentication Service</text></g><!--cluster Family Service--><g class="cluster" data-entity="Family Service" data-source-line="13" data-uid="ent0010" id="cluster_Family Service"><path d="M480.5,6 L596.8975,6 A3.75,3.75 0 0 1 599.3975,8.5 L606.3975,28.2969 L963.5,28.2969 A2.5,2.5 0 0 1 966,30.7969 L966,102.5 A2.5,2.5 0 0 1 963.5,105 L480.5,105 A2.5,2.5 0 0 1 478,102.5 L478,8.5 A2.5,2.5 0 0 1 480.5,6" fill="none" style="stroke:#FFFFFF;stroke-width:1.5;"/><line style="stroke:#FFFFFF;stroke-width:1.5;" x1="478" x2="606.3975" y1="28.2969" y2="28.2969"/><text fill="#FFFFFF" font-family="sans-serif" font-size="14" font-weight="bold" lengthAdjust="spacing" textLength="115.3975" x="482" y="20.9951">Family Service</text></g><!--class DTO--><g class="entity" data-entity="DTO" data-source-line="2" data-uid="ent0003" id="entity_DTO"><rect fill="#313139" height="48" rx="2.5" ry="2.5" style="stroke:#E7E7E7;stroke-width:0.5;" width="62.3516" x="531.82" y="189"/><ellipse cx="546.82" cy="205" fill="#2E5233" rx="11" ry="11" style="stroke:#E7E7E7;stroke-width:1;"/><path d="M549.7888,210.6406 Q549.2106,210.9375 548.57,211.0781 Q547.9294,211.2344 547.2263,211.2344 Q544.7263,211.2344 543.3981,209.5938 Q542.0856,207.9375 542.0856,204.8125 Q542.0856,201.6875 543.3981,200.0313 Q544.7263,198.375 547.2263,198.375 Q547.9294,198.375 548.57,198.5313 Q549.2263,198.6875 549.7888,198.9844 L549.7888,201.7031 Q549.1638,201.125 548.57,200.8594 Q547.9763,200.5781 547.3513,200.5781 Q546.0075,200.5781 545.32,201.6563 Q544.6325,202.7188 544.6325,204.8125 Q544.6325,206.9063 545.32,207.9844 Q546.0075,209.0469 547.3513,209.0469 Q547.9763,209.0469 548.57,208.7813 Q549.1638,208.5 549.7888,207.9219 L549.7888,210.6406 Z " fill="#FFFFFF"/><text fill="#FFFFFF" font-family="sans-serif" font-size="14" lengthAdjust="spacing" textLength="30.3516" x="560.82" y="209.8467">DTO</text><line style="stroke:#E7E7E7;stroke-width:0.5;" x1="532.82" x2="593.1716" y1="221" y2="221"/><line style="stroke:#E7E7E7;stroke-width:0.5;" x1="532.82" x2="593.1716" y1="229" y2="229"/></g><!--class Exception--><g class="entity" data-entity="Exception" data-source-line="3" data-uid="ent0004" id="entity_Exception"><rect fill="#313139" height="48" rx="2.5" ry="2.5" style="stroke:#E7E7E7;stroke-width:0.5;" width="101.1455" x="629.43" y="189"/><ellipse cx="644.43" cy="205" fill="#2E5233" rx="11" ry="11" style="stroke:#E7E7E7;stroke-width:1;"/><path d="M647.3988,210.6406 Q646.8206,210.9375 646.18,211.0781 Q645.5394,211.2344 644.8363,211.2344 Q642.3363,211.2344 641.0081,209.5938 Q639.6956,207.9375 639.6956,204.8125 Q639.6956,201.6875 641.0081,200.0313 Q642.3363,198.375 644.8363,198.375 Q645.5394,198.375 646.18,198.5313 Q646.8363,198.6875 647.3988,198.9844 L647.3988,201.7031 Q646.7738,201.125 646.18,200.8594 Q645.5863,200.5781 644.9613,200.5781 Q643.6175,200.5781 642.93,201.6563 Q642.2425,202.7188 642.2425,204.8125 Q642.2425,206.9063 642.93,207.9844 Q643.6175,209.0469 644.9613,209.0469 Q645.5863,209.0469 646.18,208.7813 Q646.7738,208.5 647.3988,207.9219 L647.3988,210.6406 Z " fill="#FFFFFF"/><text fill="#FFFFFF" font-family="sans-serif" font-size="14" lengthAdjust="spacing" textLength="69.1455" x="658.43" y="209.8467">Exception</text><line style="stroke:#E7E7E7;stroke-width:0.5;" x1="630.43" x2="729.5755" y1="221" y2="221"/><line style="stroke:#E7E7E7;stroke-width:0.5;" x1="630.43" x2="729.5755" y1="229" y2="229"/></g><!--class Configuration--><g class="entity" data-entity="Configuration" data-source-line="4" data-uid="ent0005" id="entity_Configuration"><rect fill="#313139" height="48" rx="2.5" ry="2.5" style="stroke:#E7E7E7;stroke-width:0.5;" width="126.9443" x="765.53" y="189"/><ellipse cx="780.53" cy="205" fill="#2E5233" rx="11" ry="11" style="stroke:#E7E7E7;stroke-width:1;"/><path d="M783.4988,210.6406 Q782.9206,210.9375 782.28,211.0781 Q781.6394,211.2344 780.9363,211.2344 Q778.4363,211.2344 777.1081,209.5938 Q775.7956,207.9375 775.7956,204.8125 Q775.7956,201.6875 777.1081,200.0313 Q778.4363,198.375 780.9363,198.375 Q781.6394,198.375 782.28,198.5313 Q782.9363,198.6875 783.4988,198.9844 L783.4988,201.7031 Q782.8738,201.125 782.28,200.8594 Q781.6863,200.5781 781.0613,200.5781 Q779.7175,200.5781 779.03,201.6563 Q778.3425,202.7188 778.3425,204.8125 Q778.3425,206.9063 779.03,207.9844 Q779.7175,209.0469 781.0613,209.0469 Q781.6863,209.0469 782.28,208.7813 Q782.8738,208.5 783.4988,207.9219 L783.4988,210.6406 Z " fill="#FFFFFF"/><text fill="#FFFFFF" font-family="sans-serif" font-size="14" lengthAdjust="spacing" textLength="94.9443" x="794.53" y="209.8467">Configuration</text><line style="stroke:#E7E7E7;stroke-width:0.5;" x1="766.53" x2="891.4743" y1="221" y2="221"/><line style="stroke:#E7E7E7;stroke-width:0.5;" x1="766.53" x2="891.4743" y1="229" y2="229"/></g><!--class AuthController--><g class="entity" data-entity="AuthController" data-source-line="8" data-uid="ent0007" id="entity_AuthController"><rect fill="#313139" height="48" rx="2.5" ry="2.5" style="stroke:#E7E7E7;stroke-width:0.5;" width="133.9854" x="22.01" y="41"/><ellipse cx="37.01" cy="57" fill="#2E5233" rx="11" ry="11" style="stroke:#E7E7E7;stroke-width:1;"/><path d="M39.9788,62.6406 Q39.4006,62.9375 38.76,63.0781 Q38.1194,63.2344 37.4163,63.2344 Q34.9163,63.2344 33.5881,61.5938 Q32.2756,59.9375 32.2756,56.8125 Q32.2756,53.6875 33.5881,52.0313 Q34.9163,50.375 37.4163,50.375 Q38.1194,50.375 38.76,50.5313 Q39.4163,50.6875 39.9788,50.9844 L39.9788,53.7031 Q39.3538,53.125 38.76,52.8594 Q38.1663,52.5781 37.5413,52.5781 Q36.1975,52.5781 35.51,53.6563 Q34.8225,54.7188 34.8225,56.8125 Q34.8225,58.9063 35.51,59.9844 Q36.1975,61.0469 37.5413,61.0469 Q38.1663,61.0469 38.76,60.7813 Q39.3538,60.5 39.9788,59.9219 L39.9788,62.6406 Z " fill="#FFFFFF"/><text fill="#FFFFFF" font-family="sans-serif" font-size="14" lengthAdjust="spacing" textLength="101.9854" x="51.01" y="61.8467">AuthController</text><line style="stroke:#E7E7E7;stroke-width:0.5;" x1="23.01" x2="154.9954" y1="73" y2="73"/><line style="stroke:#E7E7E7;stroke-width:0.5;" x1="23.01" x2="154.9954" y1="81" y2="81"/></g><!--class AuthService--><g class="entity" data-entity="AuthService" data-source-line="9" data-uid="ent0008" id="entity_AuthService"><rect fill="#313139" height="48" rx="2.5" ry="2.5" style="stroke:#E7E7E7;stroke-width:0.5;" width="116.5537" x="190.72" y="41"/><ellipse cx="205.72" cy="57" fill="#2E5233" rx="11" ry="11" style="stroke:#E7E7E7;stroke-width:1;"/><path d="M208.6888,62.6406 Q208.1106,62.9375 207.47,63.0781 Q206.8294,63.2344 206.1263,63.2344 Q203.6263,63.2344 202.2981,61.5938 Q200.9856,59.9375 200.9856,56.8125 Q200.9856,53.6875 202.2981,52.0313 Q203.6263,50.375 206.1263,50.375 Q206.8294,50.375 207.47,50.5313 Q208.1263,50.6875 208.6888,50.9844 L208.6888,53.7031 Q208.0638,53.125 207.47,52.8594 Q206.8763,52.5781 206.2513,52.5781 Q204.9075,52.5781 204.22,53.6563 Q203.5325,54.7188 203.5325,56.8125 Q203.5325,58.9063 204.22,59.9844 Q204.9075,61.0469 206.2513,61.0469 Q206.8763,61.0469 207.47,60.7813 Q208.0638,60.5 208.6888,59.9219 L208.6888,62.6406 Z " fill="#FFFFFF"/><text fill="#FFFFFF" font-family="sans-serif" font-size="14" lengthAdjust="spacing" textLength="84.5537" x="219.72" y="61.8467">AuthService</text><line style="stroke:#E7E7E7;stroke-width:0.5;" x1="191.72" x2="306.2737" y1="73" y2="73"/><line style="stroke:#E7E7E7;stroke-width:0.5;" x1="191.72" x2="306.2737" y1="81" y2="81"/></g><!--class AuthDTO--><g class="entity" data-entity="AuthDTO" data-source-line="10" data-uid="ent0009" id="entity_AuthDTO"><rect fill="#313139" height="48" rx="2.5" ry="2.5" style="stroke:#E7E7E7;stroke-width:0.5;" width="95.1641" x="342.42" y="41"/><ellipse cx="357.42" cy="57" fill="#2E5233" rx="11" ry="11" style="stroke:#E7E7E7;stroke-width:1;"/><path d="M360.3888,62.6406 Q359.8106,62.9375 359.17,63.0781 Q358.5294,63.2344 357.8263,63.2344 Q355.3263,63.2344 353.9981,61.5938 Q352.6856,59.9375 352.6856,56.8125 Q352.6856,53.6875 353.9981,52.0313 Q355.3263,50.375 357.8263,50.375 Q358.5294,50.375 359.17,50.5313 Q359.8263,50.6875 360.3888,50.9844 L360.3888,53.7031 Q359.7638,53.125 359.17,52.8594 Q358.5763,52.5781 357.9513,52.5781 Q356.6075,52.5781 355.92,53.6563 Q355.2325,54.7188 355.2325,56.8125 Q355.2325,58.9063 355.92,59.9844 Q356.6075,61.0469 357.9513,61.0469 Q358.5763,61.0469 359.17,60.7813 Q359.7638,60.5 360.3888,59.9219 L360.3888,62.6406 Z " fill="#FFFFFF"/><text fill="#FFFFFF" font-family="sans-serif" font-size="14" lengthAdjust="spacing" textLength="63.1641" x="371.42" y="61.8467">AuthDTO</text><line style="stroke:#E7E7E7;stroke-width:0.5;" x1="343.42" x2="436.5841" y1="73" y2="73"/><line style="stroke:#E7E7E7;stroke-width:0.5;" x1="343.42" x2="436.5841" y1="81" y2="81"/></g><!--class FamilyController--><g class="entity" data-entity="FamilyController" data-source-line="14" data-uid="ent0011" id="entity_FamilyController"><rect fill="#313139" height="48" rx="2.5" ry="2.5" style="stroke:#E7E7E7;stroke-width:0.5;" width="147.5068" x="494.25" y="41"/><ellipse cx="509.25" cy="57" fill="#2E5233" rx="11" ry="11" style="stroke:#E7E7E7;stroke-width:1;"/><path d="M512.2188,62.6406 Q511.6406,62.9375 511,63.0781 Q510.3594,63.2344 509.6563,63.2344 Q507.1563,63.2344 505.8281,61.5938 Q504.5156,59.9375 504.5156,56.8125 Q504.5156,53.6875 505.8281,52.0313 Q507.1563,50.375 509.6563,50.375 Q510.3594,50.375 511,50.5313 Q511.6563,50.6875 512.2188,50.9844 L512.2188,53.7031 Q511.5938,53.125 511,52.8594 Q510.4063,52.5781 509.7813,52.5781 Q508.4375,52.5781 507.75,53.6563 Q507.0625,54.7188 507.0625,56.8125 Q507.0625,58.9063 507.75,59.9844 Q508.4375,61.0469 509.7813,61.0469 Q510.4063,61.0469 511,60.7813 Q511.5938,60.5 512.2188,59.9219 L512.2188,62.6406 Z " fill="#FFFFFF"/><text fill="#FFFFFF" font-family="sans-serif" font-size="14" lengthAdjust="spacing" textLength="115.5068" x="523.25" y="61.8467">FamilyController</text><line style="stroke:#E7E7E7;stroke-width:0.5;" x1="495.25" x2="640.7568" y1="73" y2="73"/><line style="stroke:#E7E7E7;stroke-width:0.5;" x1="495.25" x2="640.7568" y1="81" y2="81"/></g><!--class FamilyService--><g class="entity" data-entity="FamilyService" data-source-line="15" data-uid="ent0012" id="entity_FamilyService"><rect fill="#313139" height="48" rx="2.5" ry="2.5" style="stroke:#E7E7E7;stroke-width:0.5;" width="130.0752" x="676.96" y="41"/><ellipse cx="691.96" cy="57" fill="#2E5233" rx="11" ry="11" style="stroke:#E7E7E7;stroke-width:1;"/><path d="M694.9288,62.6406 Q694.3506,62.9375 693.71,63.0781 Q693.0694,63.2344 692.3663,63.2344 Q689.8663,63.2344 688.5381,61.5938 Q687.2256,59.9375 687.2256,56.8125 Q687.2256,53.6875 688.5381,52.0313 Q689.8663,50.375 692.3663,50.375 Q693.0694,50.375 693.71,50.5313 Q694.3663,50.6875 694.9288,50.9844 L694.9288,53.7031 Q694.3038,53.125 693.71,52.8594 Q693.1163,52.5781 692.4913,52.5781 Q691.1475,52.5781 690.46,53.6563 Q689.7725,54.7188 689.7725,56.8125 Q689.7725,58.9063 690.46,59.9844 Q691.1475,61.0469 692.4913,61.0469 Q693.1163,61.0469 693.71,60.7813 Q694.3038,60.5 694.9288,59.9219 L694.9288,62.6406 Z " fill="#FFFFFF"/><text fill="#FFFFFF" font-family="sans-serif" font-size="14" lengthAdjust="spacing" textLength="98.0752" x="705.96" y="61.8467">FamilyService</text><line style="stroke:#E7E7E7;stroke-width:0.5;" x1="677.96" x2="806.0352" y1="73" y2="73"/><line style="stroke:#E7E7E7;stroke-width:0.5;" x1="677.96" x2="806.0352" y1="81" y2="81"/></g><!--class FamilyDTO--><g class="entity" data-entity="FamilyDTO" data-source-line="16" data-uid="ent0013" id="entity_FamilyDTO"><rect fill="#313139" height="48" rx="2.5" ry="2.5" style="stroke:#E7E7E7;stroke-width:0.5;" width="108.6855" x="841.66" y="41"/><ellipse cx="856.66" cy="57" fill="#2E5233" rx="11" ry="11" style="stroke:#E7E7E7;stroke-width:1;"/><path d="M859.6288,62.6406 Q859.0506,62.9375 858.41,63.0781 Q857.7694,63.2344 857.0663,63.2344 Q854.5663,63.2344 853.2381,61.5938 Q851.9256,59.9375 851.9256,56.8125 Q851.9256,53.6875 853.2381,52.0313 Q854.5663,50.375 857.0663,50.375 Q857.7694,50.375 858.41,50.5313 Q859.0663,50.6875 859.6288,50.9844 L859.6288,53.7031 Q859.0038,53.125 858.41,52.8594 Q857.8163,52.5781 857.1913,52.5781 Q855.8475,52.5781 855.16,53.6563 Q854.4725,54.7188 854.4725,56.8125 Q854.4725,58.9063 855.16,59.9844 Q855.8475,61.0469 857.1913,61.0469 Q857.8163,61.0469 858.41,60.7813 Q859.0038,60.5 859.6288,59.9219 L859.6288,62.6406 Z " fill="#FFFFFF"/><text fill="#FFFFFF" font-family="sans-serif" font-size="14" lengthAdjust="spacing" textLength="76.6855" x="870.66" y="61.8467">FamilyDTO</text><line style="stroke:#E7E7E7;stroke-width:0.5;" x1="842.66" x2="949.3455" y1="73" y2="73"/><line style="stroke:#E7E7E7;stroke-width:0.5;" x1="842.66" x2="949.3455" y1="81" y2="81"/></g><!--link AuthDTO to DTO--><g class="link" data-entity-1="AuthDTO" data-entity-2="DTO" data-source-line="20" data-uid="lnk14" id="link_AuthDTO_DTO"><path codeLine="20" d="M417.8,89.46 C450.08,116.7 489.2647,149.7701 521.5147,176.9901" fill="none" id="AuthDTO-to-DTO" style="stroke:#E7E7E7;stroke-width:1;stroke-dasharray:7.0,7.0;"/><polygon fill="none" points="535.27,188.6,525.3846,172.405,517.6447,181.5752,535.27,188.6" style="stroke:#E7E7E7;stroke-width:1;"/><text fill="#FFFFFF" font-family="sans-serif" font-size="13" lengthAdjust="spacing" textLength="29.7832" x="472" y="134.0669">uses</text></g><!--link FamilyDTO to DTO--><g class="link" data-entity-1="FamilyDTO" data-entity-2="DTO" data-source-line="21" data-uid="lnk15" id="link_FamilyDTO_DTO"><path codeLine="21" d="M866.83,89.43 C854.57,98.14 839.75,107.29 825,113 C735.66,147.57 694.02,96.51 612,146 C595.38,156.03 591.486,158.382 583.146,173.052" fill="none" id="FamilyDTO-to-DTO" style="stroke:#E7E7E7;stroke-width:1;stroke-dasharray:7.0,7.0;"/><polygon fill="none" points="574.25,188.7,588.362,176.0173,577.93,170.0866,574.25,188.7" style="stroke:#E7E7E7;stroke-width:1;"/><text fill="#FFFFFF" font-family="sans-serif" font-size="13" lengthAdjust="spacing" textLength="29.7832" x="795" y="134.0669">uses</text></g><!--SRC=[RP113e8m44NtFSM4ZIivW0iJ8xfreHUO32CqrhPfYz4WTnSj44jOpdypxpUrI3Ui638i7VeQrsGSPz0A05BeFHIN4xJTD1wUn3P8e__3lT5NMJKEHz09OKVnhWarwo0fqZExXwIauhlHAu8pIh5Buc4xoVeN9GL7l4lrMX97ig2EO2wFwQ1VGS6MTScQ97in54EUlxU_Fzb0u_jykfcJ3m00]--></g></svg>