<svg xmlns="http://www.w3.org/2000/svg" xmlns:xlink="http://www.w3.org/1999/xlink" contentStyleType="text/css" data-diagram-type="SEQUENCE" height="356px" preserveAspectRatio="none" style="width:647px;height:356px;background:#1B1B1B;" version="1.1" viewBox="0 0 647 356" width="647px" zoomAndPan="magnify"><defs/><g><rect fill="#1B1B1B" height="356" style="stroke:none;stroke-width:1;" width="647" x="0" y="0"/><g><title>User</title><rect fill="#000000" fill-opacity="0.00000" height="194.7969" width="8" x="19.9551" y="81.2969"/><line style="stroke:#E7E7E7;stroke-width:0.5;stroke-dasharray:5.0,5.0;" x1="23" x2="23" y1="81.2969" y2="276.0938"/></g><g><title>Auth Service</title><rect fill="#000000" fill-opacity="0.00000" height="194.7969" width="8" x="221.2007" y="81.2969"/><line style="stroke:#E7E7E7;stroke-width:0.5;stroke-dasharray:5.0,5.0;" x1="224.6987" x2="224.6987" y1="81.2969" y2="276.0938"/></g><g><title>Reporting Service</title><rect fill="#000000" fill-opacity="0.00000" height="194.7969" width="8" x="352.1421" y="81.2969"/><line style="stroke:#E7E7E7;stroke-width:0.5;stroke-dasharray:5.0,5.0;" x1="355.7026" x2="355.7026" y1="81.2969" y2="276.0938"/></g><g><title>Analytics Engine</title><rect fill="#000000" fill-opacity="0.00000" height="194.7969" width="8" x="572.0054" y="81.2969"/><line style="stroke:#E7E7E7;stroke-width:0.5;stroke-dasharray:5.0,5.0;" x1="576.0024" x2="576.0024" y1="81.2969" y2="276.0938"/></g><g class="participant participant-head" data-participant="U"><text fill="#FFFFFF" font-family="sans-serif" font-size="14" lengthAdjust="spacing" textLength="31.9102" x="5" y="77.9951">User</text><ellipse cx="23.9551" cy="13.5" fill="#222222" rx="8" ry="8" style="stroke:#E7E7E7;stroke-width:0.5;"/><path d="M23.9551,21.5 L23.9551,48.5 M10.9551,29.5 L36.9551,29.5 M23.9551,48.5 L10.9551,63.5 M23.9551,48.5 L36.9551,63.5" fill="none" style="stroke:#E7E7E7;stroke-width:0.5;"/></g><g class="participant participant-tail" data-participant="U"><text fill="#FFFFFF" font-family="sans-serif" font-size="14" lengthAdjust="spacing" textLength="31.9102" x="5" y="288.0889">User</text><ellipse cx="23.9551" cy="299.8906" fill="#222222" rx="8" ry="8" style="stroke:#E7E7E7;stroke-width:0.5;"/><path d="M23.9551,307.8906 L23.9551,334.8906 M10.9551,315.8906 L36.9551,315.8906 M23.9551,334.8906 L10.9551,349.8906 M23.9551,334.8906 L36.9551,349.8906" fill="none" style="stroke:#E7E7E7;stroke-width:0.5;"/></g><g class="participant participant-head" data-participant="Auth"><rect fill="#222222" height="30.2969" rx="2.5" ry="2.5" style="stroke:#E7E7E7;stroke-width:0.5;" width="103.0039" x="173.6987" y="50"/><text fill="#FFFFFF" font-family="sans-serif" font-size="14" lengthAdjust="spacing" textLength="89.0039" x="180.6987" y="69.9951">Auth Service</text></g><g class="participant participant-tail" data-participant="Auth"><rect fill="#222222" height="30.2969" rx="2.5" ry="2.5" style="stroke:#E7E7E7;stroke-width:0.5;" width="103.0039" x="173.6987" y="275.0938"/><text fill="#FFFFFF" font-family="sans-serif" font-size="14" lengthAdjust="spacing" textLength="89.0039" x="180.6987" y="295.0889">Auth Service</text></g><g class="participant participant-head" data-participant="ReportSvc"><rect fill="#222222" height="30.2969" rx="2.5" ry="2.5" style="stroke:#E7E7E7;stroke-width:0.5;" width="138.8789" x="286.7026" y="50"/><text fill="#FFFFFF" font-family="sans-serif" font-size="14" lengthAdjust="spacing" textLength="124.8789" x="293.7026" y="69.9951">Reporting Service</text></g><g class="participant participant-tail" data-participant="ReportSvc"><rect fill="#222222" height="30.2969" rx="2.5" ry="2.5" style="stroke:#E7E7E7;stroke-width:0.5;" width="138.8789" x="286.7026" y="275.0938"/><text fill="#FFFFFF" font-family="sans-serif" font-size="14" lengthAdjust="spacing" textLength="124.8789" x="293.7026" y="295.0889">Reporting Service</text></g><g class="participant participant-head" data-participant="Analytics"><rect fill="#222222" height="30.2969" rx="2.5" ry="2.5" style="stroke:#E7E7E7;stroke-width:0.5;" width="130.0059" x="511.0024" y="50"/><text fill="#FFFFFF" font-family="sans-serif" font-size="14" lengthAdjust="spacing" textLength="116.0059" x="518.0024" y="69.9951">Analytics Engine</text></g><g class="participant participant-tail" data-participant="Analytics"><rect fill="#222222" height="30.2969" rx="2.5" ry="2.5" style="stroke:#E7E7E7;stroke-width:0.5;" width="130.0059" x="511.0024" y="275.0938"/><text fill="#FFFFFF" font-family="sans-serif" font-size="14" lengthAdjust="spacing" textLength="116.0059" x="518.0024" y="295.0889">Analytics Engine</text></g><g class="message" data-participant-1="U" data-participant-2="Auth"><polygon fill="#E7E7E7" points="213.2007,108.4297,223.2007,112.4297,213.2007,116.4297,217.2007,112.4297" style="stroke:#E7E7E7;stroke-width:1;"/><line style="stroke:#E7E7E7;stroke-width:1;" x1="23.9551" x2="219.2007" y1="112.4297" y2="112.4297"/><text fill="#FFFFFF" font-family="sans-serif" font-size="13" lengthAdjust="spacing" textLength="177.2456" x="30.9551" y="107.3638">login(username, password)</text></g><g class="message" data-participant-1="Auth" data-participant-2="U"><polygon fill="#E7E7E7" points="34.9551,137.5625,24.9551,141.5625,34.9551,145.5625,30.9551,141.5625" style="stroke:#E7E7E7;stroke-width:1;"/><line style="stroke:#E7E7E7;stroke-width:1;stroke-dasharray:2.0,2.0;" x1="28.9551" x2="224.2007" y1="141.5625" y2="141.5625"/><text fill="#FFFFFF" font-family="sans-serif" font-size="13" lengthAdjust="spacing" textLength="121.3291" x="40.9551" y="136.4966">auth token + roles</text></g><g class="message" data-participant-1="U" data-participant-2="ReportSvc"><polygon fill="#E7E7E7" points="344.1421,166.6953,354.1421,170.6953,344.1421,174.6953,348.1421,170.6953" style="stroke:#E7E7E7;stroke-width:1;"/><line style="stroke:#E7E7E7;stroke-width:1;" x1="23.9551" x2="350.1421" y1="170.6953" y2="170.6953"/><text fill="#FFFFFF" font-family="sans-serif" font-size="13" lengthAdjust="spacing" textLength="220.6763" x="30.9551" y="165.6294">requestReport(reportType, filters)</text></g><g class="message" data-participant-1="ReportSvc" data-participant-2="Analytics"><polygon fill="#E7E7E7" points="564.0054,195.8281,574.0054,199.8281,564.0054,203.8281,568.0054,199.8281" style="stroke:#E7E7E7;stroke-width:1;"/><line style="stroke:#E7E7E7;stroke-width:1;" x1="356.1421" x2="570.0054" y1="199.8281" y2="199.8281"/><text fill="#FFFFFF" font-family="sans-serif" font-size="13" lengthAdjust="spacing" textLength="195.8633" x="363.1421" y="194.7622">queryData(reportType, filters)</text></g><g class="message" data-participant-1="Analytics" data-participant-2="ReportSvc"><polygon fill="#E7E7E7" points="367.1421,224.9609,357.1421,228.9609,367.1421,232.9609,363.1421,228.9609" style="stroke:#E7E7E7;stroke-width:1;"/><line style="stroke:#E7E7E7;stroke-width:1;stroke-dasharray:2.0,2.0;" x1="361.1421" x2="575.0054" y1="228.9609" y2="228.9609"/><text fill="#FFFFFF" font-family="sans-serif" font-size="13" lengthAdjust="spacing" textLength="106.4185" x="373.1421" y="223.895">aggregatedData</text></g><g class="message" data-participant-1="ReportSvc" data-participant-2="U"><polygon fill="#E7E7E7" points="34.9551,254.0938,24.9551,258.0938,34.9551,262.0938,30.9551,258.0938" style="stroke:#E7E7E7;stroke-width:1;"/><line style="stroke:#E7E7E7;stroke-width:1;stroke-dasharray:2.0,2.0;" x1="28.9551" x2="355.1421" y1="258.0938" y2="258.0938"/><text fill="#FFFFFF" font-family="sans-serif" font-size="13" lengthAdjust="spacing" textLength="108.6274" x="40.9551" y="253.0278">formattedReport</text></g><!--SRC=[ROvB3i8m34JtEON5YWfw0HP8I701e0UmYWaH9GcE2-hjSLee7x6oF7wU6QmbC5I96311PKn45bUxY5vWichb13lYcwjfae4iV2DRYa5NRx-uGTtTwXy_ZqsdQuADjyu_FL-YCHMKopu35j049QQjDlDueJb4JEaU-52O7YYLh1J3l4WuauSPS6ZePJDMK8ZfsbAIGPfoF_PTLDUZQuGu5UQDvmfZpmNe9tTh5Fp_zqRBdr2qbicYq25_VmOygny3Nr3qFfmU]--></g></svg>