<svg xmlns="http://www.w3.org/2000/svg" xmlns:xlink="http://www.w3.org/1999/xlink" contentStyleType="text/css" data-diagram-type="SEQUENCE" height="473px" preserveAspectRatio="none" style="width:782px;height:473px;background:#1B1B1B;" version="1.1" viewBox="0 0 782 473" width="782px" zoomAndPan="magnify"><defs/><g><rect fill="#1B1B1B" height="473" style="stroke:none;stroke-width:1;" width="782" x="0" y="0"/><g><title>ASHA</title><rect fill="#000000" fill-opacity="0.00000" height="311.3281" width="8" x="23.2842" y="81.2969"/><line style="stroke:#E7E7E7;stroke-width:0.5;stroke-dasharray:5.0,5.0;" x1="27" x2="27" y1="81.2969" y2="392.625"/></g><g><title>Auth Service</title><rect fill="#000000" fill-opacity="0.00000" height="311.3281" width="8" x="224.5298" y="81.2969"/><line style="stroke:#E7E7E7;stroke-width:0.5;stroke-dasharray:5.0,5.0;" x1="228.0278" x2="228.0278" y1="81.2969" y2="392.625"/></g><g><title>Family Service</title><rect fill="#000000" fill-opacity="0.00000" height="311.3281" width="8" x="344.2944" y="81.2969"/><line style="stroke:#E7E7E7;stroke-width:0.5;stroke-dasharray:5.0,5.0;" x1="348.0317" x2="348.0317" y1="81.2969" y2="392.625"/></g><g><title>Address Service</title><rect fill="#000000" fill-opacity="0.00000" height="311.3281" width="8" x="475.8066" y="81.2969"/><line style="stroke:#E7E7E7;stroke-width:0.5;stroke-dasharray:5.0,5.0;" x1="479.5571" x2="479.5571" y1="81.2969" y2="392.625"/></g><g><title>Temporary Residence Service</title><rect fill="#000000" fill-opacity="0.00000" height="311.3281" width="8" x="660.7964" y="81.2969"/><line style="stroke:#E7E7E7;stroke-width:0.5;stroke-dasharray:5.0,5.0;" x1="664.0562" x2="664.0562" y1="81.2969" y2="392.625"/></g><g class="participant participant-head" data-participant="A"><text fill="#FFFFFF" font-family="sans-serif" font-size="14" lengthAdjust="spacing" textLength="38.5684" x="5" y="77.9951">ASHA</text><ellipse cx="27.2842" cy="13.5" fill="#222222" rx="8" ry="8" style="stroke:#E7E7E7;stroke-width:0.5;"/><path d="M27.2842,21.5 L27.2842,48.5 M14.2842,29.5 L40.2842,29.5 M27.2842,48.5 L14.2842,63.5 M27.2842,48.5 L40.2842,63.5" fill="none" style="stroke:#E7E7E7;stroke-width:0.5;"/></g><g class="participant participant-tail" data-participant="A"><text fill="#FFFFFF" font-family="sans-serif" font-size="14" lengthAdjust="spacing" textLength="38.5684" x="5" y="404.6201">ASHA</text><ellipse cx="27.2842" cy="416.4219" fill="#222222" rx="8" ry="8" style="stroke:#E7E7E7;stroke-width:0.5;"/><path d="M27.2842,424.4219 L27.2842,451.4219 M14.2842,432.4219 L40.2842,432.4219 M27.2842,451.4219 L14.2842,466.4219 M27.2842,451.4219 L40.2842,466.4219" fill="none" style="stroke:#E7E7E7;stroke-width:0.5;"/></g><g class="participant participant-head" data-participant="Auth"><rect fill="#222222" height="30.2969" rx="2.5" ry="2.5" style="stroke:#E7E7E7;stroke-width:0.5;" width="103.0039" x="177.0278" y="50"/><text fill="#FFFFFF" font-family="sans-serif" font-size="14" lengthAdjust="spacing" textLength="89.0039" x="184.0278" y="69.9951">Auth Service</text></g><g class="participant participant-tail" data-participant="Auth"><rect fill="#222222" height="30.2969" rx="2.5" ry="2.5" style="stroke:#E7E7E7;stroke-width:0.5;" width="103.0039" x="177.0278" y="391.625"/><text fill="#FFFFFF" font-family="sans-serif" font-size="14" lengthAdjust="spacing" textLength="89.0039" x="184.0278" y="411.6201">Auth Service</text></g><g class="participant participant-head" data-participant="FamilySvc"><rect fill="#222222" height="30.2969" rx="2.5" ry="2.5" style="stroke:#E7E7E7;stroke-width:0.5;" width="116.5254" x="290.0317" y="50"/><text fill="#FFFFFF" font-family="sans-serif" font-size="14" lengthAdjust="spacing" textLength="102.5254" x="297.0317" y="69.9951">Family Service</text></g><g class="participant participant-tail" data-participant="FamilySvc"><rect fill="#222222" height="30.2969" rx="2.5" ry="2.5" style="stroke:#E7E7E7;stroke-width:0.5;" width="116.5254" x="290.0317" y="391.625"/><text fill="#FFFFFF" font-family="sans-serif" font-size="14" lengthAdjust="spacing" textLength="102.5254" x="297.0317" y="411.6201">Family Service</text></g><g class="participant participant-head" data-participant="AddrSvc"><rect fill="#222222" height="30.2969" rx="2.5" ry="2.5" style="stroke:#E7E7E7;stroke-width:0.5;" width="126.499" x="416.5571" y="50"/><text fill="#FFFFFF" font-family="sans-serif" font-size="14" lengthAdjust="spacing" textLength="112.499" x="423.5571" y="69.9951">Address Service</text></g><g class="participant participant-tail" data-participant="AddrSvc"><rect fill="#222222" height="30.2969" rx="2.5" ry="2.5" style="stroke:#E7E7E7;stroke-width:0.5;" width="126.499" x="416.5571" y="391.625"/><text fill="#FFFFFF" font-family="sans-serif" font-size="14" lengthAdjust="spacing" textLength="112.499" x="423.5571" y="411.6201">Address Service</text></g><g class="participant participant-head" data-participant="TempResSvc"><rect fill="#222222" height="30.2969" rx="2.5" ry="2.5" style="stroke:#E7E7E7;stroke-width:0.5;" width="223.4805" x="553.0562" y="50"/><text fill="#FFFFFF" font-family="sans-serif" font-size="14" lengthAdjust="spacing" textLength="209.4805" x="560.0562" y="69.9951">Temporary Residence Service</text></g><g class="participant participant-tail" data-participant="TempResSvc"><rect fill="#222222" height="30.2969" rx="2.5" ry="2.5" style="stroke:#E7E7E7;stroke-width:0.5;" width="223.4805" x="553.0562" y="391.625"/><text fill="#FFFFFF" font-family="sans-serif" font-size="14" lengthAdjust="spacing" textLength="209.4805" x="560.0562" y="411.6201">Temporary Residence Service</text></g><g class="message" data-participant-1="A" data-participant-2="Auth"><polygon fill="#E7E7E7" points="216.5298,108.4297,226.5298,112.4297,216.5298,116.4297,220.5298,112.4297" style="stroke:#E7E7E7;stroke-width:1;"/><line style="stroke:#E7E7E7;stroke-width:1;" x1="27.2842" x2="222.5298" y1="112.4297" y2="112.4297"/><text fill="#FFFFFF" font-family="sans-serif" font-size="13" lengthAdjust="spacing" textLength="177.2456" x="34.2842" y="107.3638">login(username, password)</text></g><g class="message" data-participant-1="Auth" data-participant-2="A"><polygon fill="#E7E7E7" points="38.2842,137.5625,28.2842,141.5625,38.2842,145.5625,34.2842,141.5625" style="stroke:#E7E7E7;stroke-width:1;"/><line style="stroke:#E7E7E7;stroke-width:1;stroke-dasharray:2.0,2.0;" x1="32.2842" x2="227.5298" y1="141.5625" y2="141.5625"/><text fill="#FFFFFF" font-family="sans-serif" font-size="13" lengthAdjust="spacing" textLength="121.3291" x="44.2842" y="136.4966">auth token + roles</text></g><g class="message" data-participant-1="A" data-participant-2="FamilySvc"><polygon fill="#E7E7E7" points="336.2944,166.6953,346.2944,170.6953,336.2944,174.6953,340.2944,170.6953" style="stroke:#E7E7E7;stroke-width:1;"/><line style="stroke:#E7E7E7;stroke-width:1;" x1="27.2842" x2="342.2944" y1="170.6953" y2="170.6953"/><text fill="#FFFFFF" font-family="sans-serif" font-size="13" lengthAdjust="spacing" textLength="256.7183" x="34.2842" y="165.6294">createFamily(headOfFamily, addressId)</text></g><g class="message" data-participant-1="FamilySvc" data-participant-2="A"><polygon fill="#E7E7E7" points="38.2842,195.8281,28.2842,199.8281,38.2842,203.8281,34.2842,199.8281" style="stroke:#E7E7E7;stroke-width:1;"/><line style="stroke:#E7E7E7;stroke-width:1;stroke-dasharray:2.0,2.0;" x1="32.2842" x2="347.2944" y1="199.8281" y2="199.8281"/><text fill="#FFFFFF" font-family="sans-serif" font-size="13" lengthAdjust="spacing" textLength="52.2095" x="44.2842" y="194.7622">familyId</text></g><g class="message" data-participant-1="A" data-participant-2="FamilySvc"><polygon fill="#E7E7E7" points="336.2944,224.9609,346.2944,228.9609,336.2944,232.9609,340.2944,228.9609" style="stroke:#E7E7E7;stroke-width:1;"/><line style="stroke:#E7E7E7;stroke-width:1;" x1="27.2842" x2="342.2944" y1="228.9609" y2="228.9609"/><text fill="#FFFFFF" font-family="sans-serif" font-size="13" lengthAdjust="spacing" textLength="248.5488" x="34.2842" y="223.895">addMember(familyId, memberDetails)</text></g><g class="message" data-participant-1="FamilySvc" data-participant-2="A"><polygon fill="#E7E7E7" points="38.2842,254.0938,28.2842,258.0938,38.2842,262.0938,34.2842,258.0938" style="stroke:#E7E7E7;stroke-width:1;"/><line style="stroke:#E7E7E7;stroke-width:1;stroke-dasharray:2.0,2.0;" x1="32.2842" x2="347.2944" y1="258.0938" y2="258.0938"/><text fill="#FFFFFF" font-family="sans-serif" font-size="13" lengthAdjust="spacing" textLength="67.0059" x="44.2842" y="253.0278">memberId</text></g><g class="message" data-participant-1="A" data-participant-2="AddrSvc"><polygon fill="#E7E7E7" points="467.8066,283.2266,477.8066,287.2266,467.8066,291.2266,471.8066,287.2266" style="stroke:#E7E7E7;stroke-width:1;"/><line style="stroke:#E7E7E7;stroke-width:1;" x1="27.2842" x2="473.8066" y1="287.2266" y2="287.2266"/><text fill="#FFFFFF" font-family="sans-serif" font-size="13" lengthAdjust="spacing" textLength="98.5474" x="34.2842" y="282.1606">getAddresses()</text></g><g class="message" data-participant-1="AddrSvc" data-participant-2="A"><polygon fill="#E7E7E7" points="38.2842,312.3594,28.2842,316.3594,38.2842,320.3594,34.2842,316.3594" style="stroke:#E7E7E7;stroke-width:1;"/><line style="stroke:#E7E7E7;stroke-width:1;stroke-dasharray:2.0,2.0;" x1="32.2842" x2="478.8066" y1="316.3594" y2="316.3594"/><text fill="#FFFFFF" font-family="sans-serif" font-size="13" lengthAdjust="spacing" textLength="106.0186" x="44.2842" y="311.2935">list of addresses</text></g><g class="message" data-participant-1="A" data-participant-2="TempResSvc"><polygon fill="#E7E7E7" points="652.7964,341.4922,662.7964,345.4922,652.7964,349.4922,656.7964,345.4922" style="stroke:#E7E7E7;stroke-width:1;"/><line style="stroke:#E7E7E7;stroke-width:1;" x1="27.2842" x2="658.7964" y1="345.4922" y2="345.4922"/><text fill="#FFFFFF" font-family="sans-serif" font-size="13" lengthAdjust="spacing" textLength="497.5166" x="34.2842" y="340.4263">addTemporaryResidence(memberId, addressId, startDate, endDate, reason)</text></g><g class="message" data-participant-1="TempResSvc" data-participant-2="A"><polygon fill="#E7E7E7" points="38.2842,370.625,28.2842,374.625,38.2842,378.625,34.2842,374.625" style="stroke:#E7E7E7;stroke-width:1;"/><line style="stroke:#E7E7E7;stroke-width:1;stroke-dasharray:2.0,2.0;" x1="32.2842" x2="663.7964" y1="374.625" y2="374.625"/><text fill="#FFFFFF" font-family="sans-serif" font-size="13" lengthAdjust="spacing" textLength="143.3999" x="44.2842" y="369.5591">confirmation(success)</text></g><!--SRC=[RP71JiCm38RlVGfhfqnqBy01gTA4s652eho0ITmjeacgE1tQs-CsRRV2Ridlpt_iFwXJY53LRnKWGrKK7SPajUtG9zXKVJf3JV5YDMr6G8GryehEjjSLbANwel-O6HE9UUqdsZ_marmN8iOhV11RGrxJgcceIsNeAohOlOnJmJEquMIzwfcYHqSbTCZy4wBP5YEm6qZ1SBYay4qUdY26bdYoMUOMI4V2H5bHPqBptkHB2PZtE8ZlhMCsRqRbO1vOIj-Ht1T5DKCbk57OKqBRyYE_32n-KrvIE56Q0YLMik5KcFjQomb2Cm-xx7ZBBa-qPBr4hUOdxpOjWPFyq5uYAO6yoGU9Y8FV5dUUy_Cw-CP6Xya6hxZNMcoslm00]--></g></svg>