<svg xmlns="http://www.w3.org/2000/svg" xmlns:xlink="http://www.w3.org/1999/xlink" contentStyleType="text/css" data-diagram-type="DESCRIPTION" height="1200px" preserveAspectRatio="none" style="width:404px;height:1200px;background:#1B1B1B;" version="1.1" viewBox="0 0 404 1200" width="404px" zoomAndPan="magnify"><defs/><g><rect fill="#1B1B1B" height="1200" style="stroke:none;stroke-width:1;" width="404" x="0" y="0"/><!--cluster ADRASHA System--><g class="cluster" data-entity="ADRASHA System" data-source-line="8" data-uid="ent0005" id="cluster_ADRASHA System"><rect fill="none" height="1187" rx="2.5" ry="2.5" style="stroke:#E7E7E7;stroke-width:1;" width="254.55" x="143.66" y="7"/><text fill="#FFFFFF" font-family="sans-serif" font-size="14" font-weight="bold" lengthAdjust="spacing" textLength="139.8975" x="200.9863" y="21.9951">ADRASHA System</text></g><!--entity Register--><g class="entity" data-entity="Register" data-source-line="10" data-uid="ent0006" id="entity_Register"><ellipse cx="270.9328" cy="122.0036" fill="#313139" rx="44.2028" ry="14.5236" style="stroke:#E7E7E7;stroke-width:0.5;"/><text fill="#FFFFFF" font-family="sans-serif" font-size="14" lengthAdjust="spacing" textLength="58.2695" x="241.798" y="126.6521">Register</text></g><!--entity Login--><g class="entity" data-entity="Login" data-source-line="11" data-uid="ent0008" id="entity_Login"><ellipse cx="270.9304" cy="266.0036" fill="#313139" rx="29.8804" ry="14.5236" style="stroke:#E7E7E7;stroke-width:0.5;"/><text fill="#FFFFFF" font-family="sans-serif" font-size="14" lengthAdjust="spacing" textLength="38.0146" x="251.9231" y="270.6521">Login</text></g><!--entity Request Role--><g class="entity" data-entity="Request Role" data-source-line="12" data-uid="ent0010" id="entity_Request Role"><ellipse cx="270.9272" cy="56.9954" fill="#313139" rx="64.7272" ry="15.3454" style="stroke:#E7E7E7;stroke-width:0.5;"/><text fill="#FFFFFF" font-family="sans-serif" font-size="14" lengthAdjust="spacing" textLength="92.7432" x="224.5556" y="61.6439">Request Role</text></g><!--entity View Role Request Status--><g class="entity" data-entity="View Role Request Status" data-source-line="13" data-uid="ent0012" id="entity_View Role Request Status"><ellipse cx="270.9345" cy="193.9989" fill="#313139" rx="101.6945" ry="22.7389" style="stroke:#E7E7E7;stroke-width:0.5;"/><text fill="#FFFFFF" font-family="sans-serif" font-size="14" lengthAdjust="spacing" textLength="179.7852" x="181.0419" y="198.6473">View Role Request Status</text></g><!--entity Register Family--><g class="entity" data-entity="Register Family" data-source-line="16" data-uid="ent0015" id="entity_Register Family"><ellipse cx="270.9269" cy="555.0034" fill="#313139" rx="71.0669" ry="16.6134" style="stroke:#E7E7E7;stroke-width:0.5;"/><text fill="#FFFFFF" font-family="sans-serif" font-size="14" lengthAdjust="spacing" textLength="109.0537" x="216.4001" y="559.6518">Register Family</text></g><!--entity Add Family Member--><g class="entity" data-entity="Add Family Member" data-source-line="17" data-uid="ent0017" id="entity_Add Family Member"><ellipse cx="270.9272" cy="484.0034" fill="#313139" rx="84.0672" ry="19.2134" style="stroke:#E7E7E7;stroke-width:0.5;"/><text fill="#FFFFFF" font-family="sans-serif" font-size="14" lengthAdjust="spacing" textLength="140.1709" x="200.8418" y="488.6519">Add Family Member</text></g><!--entity Update Health Profile--><g class="entity" data-entity="Update Health Profile" data-source-line="18" data-uid="ent0019" id="entity_Update Health Profile"><ellipse cx="270.9321" cy="410.0004" fill="#313139" rx="88.2021" ry="20.0404" style="stroke:#E7E7E7;stroke-width:0.5;"/><text fill="#FFFFFF" font-family="sans-serif" font-size="14" lengthAdjust="spacing" textLength="149.6592" x="196.1025" y="414.6489">Update Health Profile</text></g><!--entity View Family Records--><g class="entity" data-entity="View Family Records" data-source-line="19" data-uid="ent0021" id="entity_View Family Records"><ellipse cx="270.9264" cy="334.9993" fill="#313139" rx="86.2964" ry="19.6593" style="stroke:#E7E7E7;stroke-width:0.5;"/><text fill="#FFFFFF" font-family="sans-serif" font-size="14" lengthAdjust="spacing" textLength="145.3047" x="198.274" y="339.6477">View Family Records</text></g><!--entity Generate Summary--><g class="entity" data-entity="Generate Summary" data-source-line="20" data-uid="ent0023" id="entity_Generate Summary"><ellipse cx="270.9317" cy="626.0023" fill="#313139" rx="82.9117" ry="18.9823" style="stroke:#E7E7E7;stroke-width:0.5;"/><text fill="#FFFFFF" font-family="sans-serif" font-size="14" lengthAdjust="spacing" textLength="137.4912" x="202.1861" y="630.6508">Generate Summary</text></g><!--entity Approve User Roles--><g class="entity" data-entity="Approve User Roles" data-source-line="24" data-uid="ent0026" id="entity_Approve User Roles"><ellipse cx="270.9329" cy="699.0006" fill="#313139" rx="82.9029" ry="18.9806" style="stroke:#E7E7E7;stroke-width:0.5;"/><text fill="#FFFFFF" font-family="sans-serif" font-size="14" lengthAdjust="spacing" textLength="137.4707" x="202.1976" y="703.649">Approve User Roles</text></g><!--entity Manage PHCs--><g class="entity" data-entity="Manage PHCs" data-source-line="25" data-uid="ent0028" id="entity_Manage PHCs"><ellipse cx="270.9277" cy="1161.9995" fill="#313139" rx="65.9977" ry="15.5995" style="stroke:#E7E7E7;stroke-width:0.5;"/><text fill="#FFFFFF" font-family="sans-serif" font-size="14" lengthAdjust="spacing" textLength="96.0996" x="222.8779" y="1166.648">Manage PHCs</text></g><!--entity Manage Vaccination Centers--><g class="entity" data-entity="Manage Vaccination Centers" data-source-line="26" data-uid="ent0030" id="entity_Manage Vaccination Centers"><ellipse cx="270.9251" cy="1086.995" fill="#313139" rx="111.2751" ry="24.655" style="stroke:#E7E7E7;stroke-width:0.5;"/><text fill="#FFFFFF" font-family="sans-serif" font-size="14" lengthAdjust="spacing" textLength="200.6348" x="170.6077" y="1091.6435">Manage Vaccination Centers</text></g><!--entity Manage Address Hierarchy--><g class="entity" data-entity="Manage Address Hierarchy" data-source-line="27" data-uid="ent0032" id="entity_Manage Address Hierarchy"><ellipse cx="270.9344" cy="1004.0029" fill="#313139" rx="105.8144" ry="23.5629" style="stroke:#E7E7E7;stroke-width:0.5;"/><text fill="#FFFFFF" font-family="sans-serif" font-size="14" lengthAdjust="spacing" textLength="188.7949" x="176.537" y="1008.6513">Manage Address Hierarchy</text></g><!--entity Manage Vaccination Types--><g class="entity" data-entity="Manage Vaccination Types" data-source-line="28" data-uid="ent0034" id="entity_Manage Vaccination Types"><ellipse cx="270.9315" cy="921.9963" fill="#313139" rx="105.3815" ry="23.4763" style="stroke:#E7E7E7;stroke-width:0.5;"/><text fill="#FFFFFF" font-family="sans-serif" font-size="14" lengthAdjust="spacing" textLength="187.8516" x="177.0058" y="926.6447">Manage Vaccination Types</text></g><!--entity Manage NCD Categories--><g class="entity" data-entity="Manage NCD Categories" data-source-line="29" data-uid="ent0036" id="entity_Manage NCD Categories"><ellipse cx="270.9315" cy="842.0023" fill="#313139" rx="97.7115" ry="21.9423" style="stroke:#E7E7E7;stroke-width:0.5;"/><text fill="#FFFFFF" font-family="sans-serif" font-size="14" lengthAdjust="spacing" textLength="171.001" x="185.431" y="846.6507">Manage NCD Categories</text></g><!--entity View Analytics--><g class="entity" data-entity="View Analytics" data-source-line="30" data-uid="ent0038" id="entity_View Analytics"><ellipse cx="270.932" cy="769.0004" fill="#313139" rx="68.102" ry="16.0204" style="stroke:#E7E7E7;stroke-width:0.5;"/><text fill="#FFFFFF" font-family="sans-serif" font-size="14" lengthAdjust="spacing" textLength="101.5547" x="220.1546" y="773.6488">View Analytics</text></g><!--entity User--><g class="entity" data-entity="User" data-source-line="4" data-uid="ent0002" id="entity_User"><ellipse cx="52.8251" cy="128.35" fill="#313139" rx="8" ry="8" style="stroke:#E7E7E7;stroke-width:0.5;"/><path d="M52.8251,136.35 L52.8251,163.35 M39.8251,144.35 L65.8251,144.35 M52.8251,163.35 L39.8251,178.35 M52.8251,163.35 L65.8251,178.35" fill="none" style="stroke:#E7E7E7;stroke-width:0.5;"/><text fill="#FFFFFF" font-family="sans-serif" font-size="14" lengthAdjust="spacing" textLength="31.9102" x="36.87" y="192.8451">User</text></g><!--entity ASHA--><g class="entity" data-entity="ASHA" data-source-line="5" data-uid="ent0003" id="entity_ASHA"><ellipse cx="52.8296" cy="417.35" fill="#313139" rx="8" ry="8" style="stroke:#E7E7E7;stroke-width:0.5;"/><path d="M52.8296,425.35 L52.8296,452.35 M39.8296,433.35 L65.8296,433.35 M52.8296,452.35 L39.8296,467.35 M52.8296,452.35 L65.8296,467.35" fill="none" style="stroke:#E7E7E7;stroke-width:0.5;"/><text fill="#FFFFFF" font-family="sans-serif" font-size="14" lengthAdjust="spacing" textLength="93.6592" x="6" y="481.8451">ASHA Worker</text></g><!--entity Admin--><g class="entity" data-entity="Admin" data-source-line="6" data-uid="ent0004" id="entity_Admin"><ellipse cx="52.8321" cy="852.35" fill="#313139" rx="8" ry="8" style="stroke:#E7E7E7;stroke-width:0.5;"/><path d="M52.8321,860.35 L52.8321,887.35 M39.8321,868.35 L65.8321,868.35 M52.8321,887.35 L39.8321,902.35 M52.8321,887.35 L65.8321,902.35" fill="none" style="stroke:#E7E7E7;stroke-width:0.5;"/><text fill="#FFFFFF" font-family="sans-serif" font-size="14" lengthAdjust="spacing" textLength="44.8643" x="30.4" y="916.8451">Admin</text></g><!--link User to Register--><g class="link" data-entity-1="User" data-entity-2="Register" data-source-line="10" data-uid="lnk7" id="link_User_Register"><path d="M69.03,155.47 C102.27,149.93 176.4114,137.5752 224.8314,129.5152" fill="none" id="User-to-Register" style="stroke:#E7E7E7;stroke-width:1;"/><polygon fill="#E7E7E7" points="230.75,128.53,221.2154,126.0621,225.8179,129.351,222.529,133.9535,230.75,128.53" style="stroke:#E7E7E7;stroke-width:1;"/></g><!--link User to Login--><g class="link" data-entity-1="User" data-entity-2="Login" data-source-line="11" data-uid="lnk9" id="link_User_Login"><path d="M69.04,176.86 C84.12,194.31 108.82,219.64 135.66,234 C169.26,251.97 206.965,259.2267 235.225,262.7067" fill="none" id="User-to-Login" style="stroke:#E7E7E7;stroke-width:1;"/><polygon fill="#E7E7E7" points="241.18,263.44,232.7363,258.37,236.2175,262.8289,231.7586,266.31,241.18,263.44" style="stroke:#E7E7E7;stroke-width:1;"/></g><!--link User to Request Role--><g class="link" data-entity-1="User" data-entity-2="Request Role" data-source-line="12" data-uid="lnk11" id="link_User_Request Role"><path d="M69.17,141.51 C84.54,125.97 109.6,103.14 135.66,90 C160.09,77.68 183.5048,70.9481 208.4948,65.9881" fill="none" id="User-to-Request Role" style="stroke:#E7E7E7;stroke-width:1;"/><polygon fill="#E7E7E7" points="214.38,64.82,204.7735,62.6487,209.4757,65.7934,206.3309,70.4956,214.38,64.82" style="stroke:#E7E7E7;stroke-width:1;"/></g><!--link User to View Role Request Status--><g class="link" data-entity-1="User" data-entity-2="View Role Request Status" data-source-line="13" data-uid="lnk13" id="link_User_View Role Request Status"><path d="M69.03,160.53 C93.67,164.64 138.1215,172.0445 182.2615,179.3945" fill="none" id="User-to-View Role Request Status" style="stroke:#E7E7E7;stroke-width:1;"/><polygon fill="#E7E7E7" points="188.18,180.38,179.9593,174.956,183.2479,179.5587,178.6452,182.8474,188.18,180.38" style="stroke:#E7E7E7;stroke-width:1;"/></g><!--link ASHA to Login--><g class="link" data-entity-1="ASHA" data-entity-2="Login" data-source-line="15" data-uid="lnk14" id="link_ASHA_Login"><path d="M65,408.67 C76.95,374.5 99.28,325.73 135.66,298 C166.25,274.68 205.2704,268.3833 234.6004,266.6533" fill="none" id="ASHA-to-Login" style="stroke:#E7E7E7;stroke-width:1;"/><polygon fill="#E7E7E7" points="240.59,266.3,231.3701,262.8369,235.5987,266.5944,231.8411,270.823,240.59,266.3" style="stroke:#E7E7E7;stroke-width:1;"/></g><!--link ASHA to Register Family--><g class="link" data-entity-1="ASHA" data-entity-2="Register Family" data-source-line="16" data-uid="lnk16" id="link_ASHA_Register Family"><path d="M88.74,485.49 C102.27,498.42 118.6,511.87 135.66,521 C158.45,533.2 179.9117,539.8997 203.9417,545.0197" fill="none" id="ASHA-to-Register Family" style="stroke:#E7E7E7;stroke-width:1;"/><polygon fill="#E7E7E7" points="209.81,546.27,201.8411,540.4823,204.9198,545.2281,200.174,548.3067,209.81,546.27" style="stroke:#E7E7E7;stroke-width:1;"/></g><!--link ASHA to Add Family Member--><g class="link" data-entity-1="ASHA" data-entity-2="Add Family Member" data-source-line="17" data-uid="lnk18" id="link_ASHA_Add Family Member"><path d="M99.92,454.89 C129.8,460.01 163.306,465.7477 196.666,471.4577" fill="none" id="ASHA-to-Add Family Member" style="stroke:#E7E7E7;stroke-width:1;"/><polygon fill="#E7E7E7" points="202.58,472.47,194.3838,467.009,197.6517,471.6265,193.0342,474.8943,202.58,472.47" style="stroke:#E7E7E7;stroke-width:1;"/></g><!--link ASHA to Update Health Profile--><g class="link" data-entity-1="ASHA" data-entity-2="Update Health Profile" data-source-line="18" data-uid="lnk20" id="link_ASHA_Update Health Profile"><path d="M99.92,439.11 C128.93,434.14 161.026,428.6425 193.736,423.0425" fill="none" id="ASHA-to-Update Health Profile" style="stroke:#E7E7E7;stroke-width:1;"/><polygon fill="#E7E7E7" points="199.65,422.03,190.1041,419.6061,194.7217,422.8737,191.454,427.4914,199.65,422.03" style="stroke:#E7E7E7;stroke-width:1;"/></g><!--link ASHA to View Family Records--><g class="link" data-entity-1="ASHA" data-entity-2="View Family Records" data-source-line="19" data-uid="lnk22" id="link_ASHA_View Family Records"><path d="M88.37,408.56 C101.98,395.36 118.46,381.52 135.66,372 C155.97,360.76 174.117,354.2363 196.137,348.6063" fill="none" id="ASHA-to-View Family Records" style="stroke:#E7E7E7;stroke-width:1;"/><polygon fill="#E7E7E7" points="201.95,347.12,192.2397,345.474,197.1058,348.3585,194.2213,353.2247,201.95,347.12" style="stroke:#E7E7E7;stroke-width:1;"/></g><!--link ASHA to Generate Summary--><g class="link" data-entity-1="ASHA" data-entity-2="Generate Summary" data-source-line="20" data-uid="lnk24" id="link_ASHA_Generate Summary"><path d="M66.56,485.48 C79.17,517.73 101.56,562.62 135.66,589 C153.45,602.76 170.2119,609.944 191.7619,615.374" fill="none" id="ASHA-to-Generate Summary" style="stroke:#E7E7E7;stroke-width:1;"/><polygon fill="#E7E7E7" points="197.58,616.84,189.8301,610.7622,192.7315,615.6183,187.8754,618.5197,197.58,616.84" style="stroke:#E7E7E7;stroke-width:1;"/></g><!--link Admin to Login--><g class="link" data-entity-1="Admin" data-entity-2="Login" data-source-line="23" data-uid="lnk25" id="link_Admin_Login"><path d="M58.63,843.54 C74.74,715.06 126.38,308.2 135.66,298 C162.18,268.84 204.0602,263.8972 234.9002,264.1172" fill="none" id="Admin-to-Login" style="stroke:#E7E7E7;stroke-width:1;"/><polygon fill="#E7E7E7" points="240.9,264.16,231.9288,260.0959,235.9001,264.1243,231.8717,268.0957,240.9,264.16" style="stroke:#E7E7E7;stroke-width:1;"/></g><!--link Admin to Approve User Roles--><g class="link" data-entity-1="Admin" data-entity-2="Approve User Roles" data-source-line="24" data-uid="lnk27" id="link_Admin_Approve User Roles"><path d="M65.68,843.43 C77.93,809.93 100.31,762.57 135.66,735 C153.07,721.42 169.3672,714.3975 190.6072,709.1175" fill="none" id="Admin-to-Approve User Roles" style="stroke:#E7E7E7;stroke-width:1;"/><polygon fill="#E7E7E7" points="196.43,707.67,186.7308,705.9594,191.5777,708.8762,188.6608,713.7231,196.43,707.67" style="stroke:#E7E7E7;stroke-width:1;"/></g><!--link Admin to Manage PHCs--><g class="link" data-entity-1="Admin" data-entity-2="Manage PHCs" data-source-line="25" data-uid="lnk29" id="link_Admin_Manage PHCs"><path d="M55.43,920.25 C59.84,974.68 76.1,1073.97 135.66,1129 C154.52,1146.43 175.1634,1154.063 199.6734,1158.193" fill="none" id="Admin-to-Manage PHCs" style="stroke:#E7E7E7;stroke-width:1;"/><polygon fill="#E7E7E7" points="205.59,1159.19,197.3798,1153.7502,200.6595,1158.3592,196.0505,1161.639,205.59,1159.19" style="stroke:#E7E7E7;stroke-width:1;"/></g><!--link Admin to Manage Vaccination Centers--><g class="link" data-entity-1="Admin" data-entity-2="Manage Vaccination Centers" data-source-line="26" data-uid="lnk31" id="link_Admin_Manage Vaccination Centers"><path d="M63.65,920.43 C75.02,957.42 97.29,1012.4 135.66,1045 C149.53,1056.78 161.0286,1063.283 178.4086,1069.383" fill="none" id="Admin-to-Manage Vaccination Centers" style="stroke:#E7E7E7;stroke-width:1;"/><polygon fill="#E7E7E7" points="184.07,1071.37,176.9026,1064.6152,179.3521,1069.7141,174.2532,1072.1637,184.07,1071.37" style="stroke:#E7E7E7;stroke-width:1;"/></g><!--link Admin to Manage Address Hierarchy--><g class="link" data-entity-1="Admin" data-entity-2="Manage Address Hierarchy" data-source-line="27" data-uid="lnk33" id="link_Admin_Manage Address Hierarchy"><path d="M75.53,909.52 C90.68,927.07 112.32,949.06 135.66,963 C153.24,973.5 168.0058,979.7538 187.6158,985.7938" fill="none" id="Admin-to-Manage Address Hierarchy" style="stroke:#E7E7E7;stroke-width:1;"/><polygon fill="#E7E7E7" points="193.35,987.56,185.9262,981.088,188.5715,986.0882,183.5713,988.7335,193.35,987.56" style="stroke:#E7E7E7;stroke-width:1;"/></g><!--link Admin to Manage Vaccination Types--><g class="link" data-entity-1="Admin" data-entity-2="Manage Vaccination Types" data-source-line="28" data-uid="lnk35" id="link_Admin_Manage Vaccination Types"><path d="M75.74,886.06 C102.24,890.96 142.4701,898.4086 183.1201,905.9286" fill="none" id="Admin-to-Manage Vaccination Types" style="stroke:#E7E7E7;stroke-width:1;"/><polygon fill="#E7E7E7" points="189.02,907.02,180.8978,901.4496,184.1034,906.1105,179.4425,909.3161,189.02,907.02" style="stroke:#E7E7E7;stroke-width:1;"/></g><!--link Admin to Manage NCD Categories--><g class="link" data-entity-1="Admin" data-entity-2="Manage NCD Categories" data-source-line="29" data-uid="lnk37" id="link_Admin_Manage NCD Categories"><path d="M75.74,877.94 C103.42,872.82 146.6201,864.8213 188.5201,857.0713" fill="none" id="Admin-to-Manage NCD Categories" style="stroke:#E7E7E7;stroke-width:1;"/><polygon fill="#E7E7E7" points="194.42,855.98,184.8426,853.6836,189.5034,856.8894,186.2976,861.5502,194.42,855.98" style="stroke:#E7E7E7;stroke-width:1;"/></g><!--link Admin to View Analytics--><g class="link" data-entity-1="Admin" data-entity-2="View Analytics" data-source-line="30" data-uid="lnk39" id="link_Admin_View Analytics"><path d="M75.45,854.81 C90.57,837.54 112.19,816.06 135.66,803 C158.77,790.14 180.9334,783.2604 205.4034,778.2204" fill="none" id="Admin-to-View Analytics" style="stroke:#E7E7E7;stroke-width:1;"/><polygon fill="#E7E7E7" points="211.28,777.01,201.6581,774.9078,206.3828,778.0187,203.272,782.7434,211.28,777.01" style="stroke:#E7E7E7;stroke-width:1;"/></g><!--SRC=[XP7DJiCm48JlUOfLJ_JGLq2AKa4EWAg4blFYRDDL_HFMBYX2l3jscYfAKOMKGpBpQJoUQDe720w4sqE0XeLKO6SpVsJReQ213jKHMwf3hmcIZRRLb6MeWXFOUfBnTP7NPGvlJeua2q0FwNlqyiQmpR8nAwBhQg3htWSo2_ZE0EAJqc2rkeUxYbgEbYndwfDhsIwlm8yJ-G2LqpHtTanVWmmNfWuOJdwPHMmuVPuvIPV3uG4Dwtvkvaqpwl1CvlrSSRAtNOE1e2JKuG0RSNi-5vkGeTWOKP5oqlWvy4YM9ANK9sDGOe6XSjhmklEavLqdxfFE0wHh-olW6MtQVbCMDvmTAiKMq_-7WcmSu0OO9n3o7agEDKKT-l_pNllkLg6NOWr5l6thXFymmrQvHTq7Lj7y-GK0]--></g></svg>