<svg xmlns="http://www.w3.org/2000/svg" xmlns:xlink="http://www.w3.org/1999/xlink" contentStyleType="text/css" data-diagram-type="SEQUENCE" height="356px" preserveAspectRatio="none" style="width:493px;height:356px;background:#1B1B1B;" version="1.1" viewBox="0 0 493 356" width="493px" zoomAndPan="magnify"><defs/><g><rect fill="#1B1B1B" height="356" style="stroke:none;stroke-width:1;" width="493" x="0" y="0"/><g><title>ASHA</title><rect fill="#000000" fill-opacity="0.00000" height="194.7969" width="8" x="23.2842" y="81.2969"/><line style="stroke:#E7E7E7;stroke-width:0.5;stroke-dasharray:5.0,5.0;" x1="27" x2="27" y1="81.2969" y2="276.0938"/></g><g><title>Auth Service</title><rect fill="#000000" fill-opacity="0.00000" height="194.7969" width="8" x="224.5298" y="81.2969"/><line style="stroke:#E7E7E7;stroke-width:0.5;stroke-dasharray:5.0,5.0;" x1="228.0278" x2="228.0278" y1="81.2969" y2="276.0938"/></g><g><title>Role Management Service</title><rect fill="#000000" fill-opacity="0.00000" height="194.7969" width="8" x="384.8623" y="81.2969"/><line style="stroke:#E7E7E7;stroke-width:0.5;stroke-dasharray:5.0,5.0;" x1="388.0317" x2="388.0317" y1="81.2969" y2="276.0938"/></g><g class="participant participant-head" data-participant="A"><text fill="#FFFFFF" font-family="sans-serif" font-size="14" lengthAdjust="spacing" textLength="38.5684" x="5" y="77.9951">ASHA</text><ellipse cx="27.2842" cy="13.5" fill="#222222" rx="8" ry="8" style="stroke:#E7E7E7;stroke-width:0.5;"/><path d="M27.2842,21.5 L27.2842,48.5 M14.2842,29.5 L40.2842,29.5 M27.2842,48.5 L14.2842,63.5 M27.2842,48.5 L40.2842,63.5" fill="none" style="stroke:#E7E7E7;stroke-width:0.5;"/></g><g class="participant participant-tail" data-participant="A"><text fill="#FFFFFF" font-family="sans-serif" font-size="14" lengthAdjust="spacing" textLength="38.5684" x="5" y="288.0889">ASHA</text><ellipse cx="27.2842" cy="299.8906" fill="#222222" rx="8" ry="8" style="stroke:#E7E7E7;stroke-width:0.5;"/><path d="M27.2842,307.8906 L27.2842,334.8906 M14.2842,315.8906 L40.2842,315.8906 M27.2842,334.8906 L14.2842,349.8906 M27.2842,334.8906 L40.2842,349.8906" fill="none" style="stroke:#E7E7E7;stroke-width:0.5;"/></g><g class="participant participant-head" data-participant="Auth"><rect fill="#222222" height="30.2969" rx="2.5" ry="2.5" style="stroke:#E7E7E7;stroke-width:0.5;" width="103.0039" x="177.0278" y="50"/><text fill="#FFFFFF" font-family="sans-serif" font-size="14" lengthAdjust="spacing" textLength="89.0039" x="184.0278" y="69.9951">Auth Service</text></g><g class="participant participant-tail" data-participant="Auth"><rect fill="#222222" height="30.2969" rx="2.5" ry="2.5" style="stroke:#E7E7E7;stroke-width:0.5;" width="103.0039" x="177.0278" y="275.0938"/><text fill="#FFFFFF" font-family="sans-serif" font-size="14" lengthAdjust="spacing" textLength="89.0039" x="184.0278" y="295.0889">Auth Service</text></g><g class="participant participant-head" data-participant="RoleSvc"><rect fill="#222222" height="30.2969" rx="2.5" ry="2.5" style="stroke:#E7E7E7;stroke-width:0.5;" width="197.6611" x="290.0317" y="50"/><text fill="#FFFFFF" font-family="sans-serif" font-size="14" lengthAdjust="spacing" textLength="183.6611" x="297.0317" y="69.9951">Role Management Service</text></g><g class="participant participant-tail" data-participant="RoleSvc"><rect fill="#222222" height="30.2969" rx="2.5" ry="2.5" style="stroke:#E7E7E7;stroke-width:0.5;" width="197.6611" x="290.0317" y="275.0938"/><text fill="#FFFFFF" font-family="sans-serif" font-size="14" lengthAdjust="spacing" textLength="183.6611" x="297.0317" y="295.0889">Role Management Service</text></g><g class="message" data-participant-1="A" data-participant-2="Auth"><polygon fill="#E7E7E7" points="216.5298,108.4297,226.5298,112.4297,216.5298,116.4297,220.5298,112.4297" style="stroke:#E7E7E7;stroke-width:1;"/><line style="stroke:#E7E7E7;stroke-width:1;" x1="27.2842" x2="222.5298" y1="112.4297" y2="112.4297"/><text fill="#FFFFFF" font-family="sans-serif" font-size="13" lengthAdjust="spacing" textLength="177.2456" x="34.2842" y="107.3638">login(username, password)</text></g><g class="message" data-participant-1="Auth" data-participant-2="A"><polygon fill="#E7E7E7" points="38.2842,137.5625,28.2842,141.5625,38.2842,145.5625,34.2842,141.5625" style="stroke:#E7E7E7;stroke-width:1;"/><line style="stroke:#E7E7E7;stroke-width:1;stroke-dasharray:2.0,2.0;" x1="32.2842" x2="227.5298" y1="141.5625" y2="141.5625"/><text fill="#FFFFFF" font-family="sans-serif" font-size="13" lengthAdjust="spacing" textLength="121.3291" x="44.2842" y="136.4966">auth token + roles</text></g><g class="message" data-participant-1="A" data-participant-2="RoleSvc"><polygon fill="#E7E7E7" points="376.8623,166.6953,386.8623,170.6953,376.8623,174.6953,380.8623,170.6953" style="stroke:#E7E7E7;stroke-width:1;"/><line style="stroke:#E7E7E7;stroke-width:1;" x1="27.2842" x2="382.8623" y1="170.6953" y2="170.6953"/><text fill="#FFFFFF" font-family="sans-serif" font-size="13" lengthAdjust="spacing" textLength="280.0205" x="34.2842" y="165.6294">submitRoleRequest(userId, requestedRole)</text></g><g class="message" data-participant-1="RoleSvc" data-participant-2="A"><polygon fill="#E7E7E7" points="38.2842,195.8281,28.2842,199.8281,38.2842,203.8281,34.2842,199.8281" style="stroke:#E7E7E7;stroke-width:1;"/><line style="stroke:#E7E7E7;stroke-width:1;stroke-dasharray:2.0,2.0;" x1="32.2842" x2="387.8623" y1="199.8281" y2="199.8281"/><text fill="#FFFFFF" font-family="sans-serif" font-size="13" lengthAdjust="spacing" textLength="180.3115" x="44.2842" y="194.7622">requestId, status=PENDING</text></g><g class="message" data-participant-1="A" data-participant-2="RoleSvc"><polygon fill="#E7E7E7" points="376.8623,224.9609,386.8623,228.9609,376.8623,232.9609,380.8623,228.9609" style="stroke:#E7E7E7;stroke-width:1;"/><line style="stroke:#E7E7E7;stroke-width:1;" x1="27.2842" x2="382.8623" y1="228.9609" y2="228.9609"/><text fill="#FFFFFF" font-family="sans-serif" font-size="13" lengthAdjust="spacing" textLength="216.6899" x="34.2842" y="223.895">getRoleRequestStatus(requestId)</text></g><g class="message" data-participant-1="RoleSvc" data-participant-2="A"><polygon fill="#E7E7E7" points="38.2842,254.0938,28.2842,258.0938,38.2842,262.0938,34.2842,258.0938" style="stroke:#E7E7E7;stroke-width:1;"/><line style="stroke:#E7E7E7;stroke-width:1;stroke-dasharray:2.0,2.0;" x1="32.2842" x2="387.8623" y1="258.0938" y2="258.0938"/><text fill="#FFFFFF" font-family="sans-serif" font-size="13" lengthAdjust="spacing" textLength="274.4219" x="44.2842" y="253.0278">status (PENDING / APPROVED / REJECTED)</text></g><!--SRC=[POt1QiCm44Jl-eeb9vicz5v8GTIYJQ69iKllMtjnH6F9bLR9xqTId9AIcsRdpHDsR1t8zaq2Uf12JEXOTtf2mx2GWVVGaZlgZXOPY8V_I6CF11zeSA2Huk6MJbrxx8IGi7hEMtY2WnsqAO8dPt2a9Kpe_ScwlXGPM2KoOfW2snyoy00kYloicQKHyU5xr9noGx-1F6Vhfb-2ksJgKrcAw-Jgdkj4UaOEVbshRRNPljvzCT2jlyrmyJU_DrzqKCm-U0HPrytkIrNnsQXtzVAfgl8C]--></g></svg>